<?xml version="1.0" standalone="no"?>
 <!DOCTYPE svg PUBLIC "-//W3C//DTD SVG 1.1//EN" 
 "http://www.w3.org/Graphics/SVG/1.1/DTD/svg11.dtd"> 
<svg xmlns="http://www.w3.org/2000/svg" version="1.1" 
    width="7.71398cm" height="7.96798cm" viewBox="0 0 30370 31370 ">
<title>SVG Picture created as BSAT - Battery Shield-B.Cu.svg date 2016/05/26 00:13:24 </title>
  <desc>Picture generated by PCBNEW </desc>
<g style="fill:#000000; fill-opacity:1;stroke:#000000; stroke-opacity:1;
stroke-linecap:round; stroke-linejoin:round; "
 transform="translate(0 0) scale(1 1)">
</g>
<g style="fill:#000000; fill-opacity:0.0; 
stroke:#000000; stroke-width:-0.000393701; stroke-opacity:1; 
stroke-linecap:round; stroke-linejoin:round;">
</g>
<g style="fill:#000000; fill-opacity:0.0; 
stroke:#000000; stroke-width:118.11; stroke-opacity:1; 
stroke-linecap:round; stroke-linejoin:round;">
<path d="M18852 26534
L18852 26646
L18824 26702
L18768 26758
L18655 26787
L18459 26787
L18346 26758
L18290 26702
L18262 26646
L18262 26534
L18290 26477
L18346 26421
L18459 26393
L18655 26393
L18768 26421
L18824 26477
L18852 26534
" />
<path d="M18262 27040
L18852 27040
L18262 27377
L18852 27377
" />
</g>
<g style="fill:#000000; fill-opacity:0.0; 
stroke:#000000; stroke-width:78.7402; stroke-opacity:1; 
stroke-linecap:round; stroke-linejoin:round;">
<path d="M20063 19409
L20044 19466
L20044 19559
L20063 19597
L20081 19616
L20119 19634
L20156 19634
L20194 19616
L20212 19597
L20231 19559
L20250 19484
L20269 19447
L20287 19428
L20325 19409
L20362 19409
L20400 19428
L20419 19447
L20437 19484
L20437 19578
L20419 19634
" />
<path d="M20156 19784
L20156 19972
" />
<path d="M20044 19747
L20437 19878
L20044 20009
" />
<path d="M20437 20084
L20437 20309
" />
<path d="M20044 20197
L20437 20197
" />
<path d="M20044 20741
L20437 20741
L20437 20890
L20419 20928
L20400 20947
L20362 20965
L20306 20965
L20269 20947
L20250 20928
L20231 20890
L20231 20741
" />
<path d="M20437 21209
L20437 21284
L20419 21322
L20381 21359
L20306 21378
L20175 21378
L20100 21359
L20063 21322
L20044 21284
L20044 21209
L20063 21172
L20100 21134
L20175 21115
L20306 21115
L20381 21134
L20419 21172
L20437 21209
" />
<path d="M20437 21509
L20044 21603
L20325 21678
L20044 21753
L20437 21847
" />
<path d="M20250 21997
L20250 22128
" />
<path d="M20044 22184
L20044 21997
L20437 21997
L20437 22184
" />
<path d="M20044 22578
L20231 22447
" />
<path d="M20044 22353
L20437 22353
L20437 22503
L20419 22540
L20400 22559
L20362 22578
L20306 22578
L20269 22559
L20250 22540
L20231 22503
L20231 22353
" />
<path d="M19433 20009
L19414 20066
L19414 20159
L19433 20197
L19451 20216
L19489 20234
L19526 20234
L19564 20216
L19583 20197
L19601 20159
L19620 20084
L19639 20047
L19658 20028
L19695 20009
L19733 20009
L19770 20028
L19789 20047
L19808 20084
L19808 20178
L19789 20234
" />
<path d="M19808 20366
L19414 20459
L19695 20534
L19414 20609
L19808 20703
" />
<path d="M19414 20853
L19808 20853
" />
<path d="M19808 20984
L19808 21209
" />
<path d="M19414 21097
L19808 21097
" />
<path d="M19451 21565
L19433 21547
L19414 21490
L19414 21453
L19433 21397
L19470 21359
L19508 21340
L19583 21322
L19639 21322
L19714 21340
L19751 21359
L19789 21397
L19808 21453
L19808 21490
L19789 21547
L19770 21565
" />
<path d="M19414 21734
L19808 21734
" />
<path d="M19620 21734
L19620 21959
" />
<path d="M19414 21959
L19808 21959
" />
</g>
<g style="fill:#000000; fill-opacity:0.0; 
stroke:#000000; stroke-width:196.85; stroke-opacity:1; 
stroke-linecap:round; stroke-linejoin:round;">
<path d="M28709 21678
L28709 22278
" />
<path d="M28409 21978
L29009 21978
" />
</g>
<g style="fill:#000000; fill-opacity:0.0; 
stroke:#000000; stroke-width:78.7402; stroke-opacity:1; 
stroke-linecap:round; stroke-linejoin:round;">
<path d="M28921 25877
L28902 25934
L28902 26027
L28921 26065
L28940 26084
L28977 26102
L29015 26102
L29052 26084
L29071 26065
L29090 26027
L29108 25952
L29127 25915
L29146 25896
L29183 25877
L29221 25877
L29258 25896
L29277 25915
L29296 25952
L29296 26046
L29277 26102
" />
<path d="M29015 26252
L29015 26440
" />
<path d="M28902 26215
L29296 26346
L28902 26477
" />
<path d="M29296 26552
L29296 26777
" />
<path d="M28902 26665
L29296 26665
" />
<path d="M28272 25399
L28666 25399
L28666 25549
L28647 25587
L28628 25606
L28591 25624
L28535 25624
L28497 25606
L28478 25587
L28460 25549
L28460 25399
" />
<path d="M28666 25868
L28666 25943
L28647 25980
L28610 26018
L28535 26037
L28403 26037
L28328 26018
L28291 25980
L28272 25943
L28272 25868
L28291 25830
L28328 25793
L28403 25774
L28535 25774
L28610 25793
L28647 25830
L28666 25868
" />
<path d="M28666 26168
L28272 26262
L28553 26337
L28272 26412
L28666 26505
" />
<path d="M28478 26655
L28478 26787
" />
<path d="M28272 26843
L28272 26655
L28666 26655
L28666 26843
" />
<path d="M28272 27237
L28460 27105
" />
<path d="M28272 27012
L28666 27012
L28666 27162
L28647 27199
L28628 27218
L28591 27237
L28535 27237
L28497 27218
L28478 27199
L28460 27162
L28460 27012
" />
</g>
<g style="fill:#000000; fill-opacity:0.0; 
stroke:#000000; stroke-width:196.85; stroke-opacity:1; 
stroke-linecap:round; stroke-linejoin:round;">
<path d="M20441 2190
L20441 2790
" />
<path d="M20141 2490
L20741 2490
" />
</g>
<g style="fill:#000000; fill-opacity:0.0; 
stroke:#000000; stroke-width:78.7402; stroke-opacity:1; 
stroke-linecap:round; stroke-linejoin:round;">
<path d="M10811 2237
L10792 2293
L10792 2387
L10811 2424
L10829 2443
L10867 2462
L10904 2462
L10942 2443
L10961 2424
L10979 2387
L10998 2312
L11017 2274
L11036 2255
L11073 2237
L11111 2237
L11148 2255
L11167 2274
L11185 2312
L11185 2405
L11167 2462
" />
<path d="M11185 2705
L11185 2780
L11167 2818
L11129 2855
L11054 2874
L10923 2874
L10848 2855
L10811 2818
L10792 2780
L10792 2705
L10811 2668
L10848 2630
L10923 2612
L11054 2612
L11129 2630
L11167 2668
L11185 2705
" />
<path d="M10792 3230
L10792 3043
L11185 3043
" />
<path d="M10904 3343
L10904 3530
" />
<path d="M10792 3305
L11185 3436
L10792 3568
" />
<path d="M10792 3924
L10979 3793
" />
<path d="M10792 3699
L11185 3699
L11185 3849
L11167 3886
L11148 3905
L11111 3924
L11054 3924
L11017 3905
L10998 3886
L10979 3849
L10979 3699
" />
<path d="M10162 2077
L10556 2077
L10556 2227
L10537 2265
L10518 2283
L10481 2302
L10424 2302
L10387 2283
L10368 2265
L10349 2227
L10349 2077
" />
<path d="M10274 2452
L10274 2640
" />
<path d="M10162 2415
L10556 2546
L10162 2677
" />
<path d="M10162 2808
L10556 2808
L10162 3033
L10556 3033
" />
<path d="M10368 3221
L10368 3352
" />
<path d="M10162 3408
L10162 3221
L10556 3221
L10556 3408
" />
<path d="M10162 3764
L10162 3577
L10556 3577
" />
<path d="M10181 3877
L10162 3933
L10162 4027
L10181 4064
L10199 4083
L10237 4102
L10274 4102
L10312 4083
L10331 4064
L10349 4027
L10368 3952
L10387 3914
L10406 3896
L10443 3877
L10481 3877
L10518 3896
L10537 3914
L10556 3952
L10556 4046
L10537 4102
" />
</g>
<g style="fill:#000000; fill-opacity:0.0; 
stroke:#000000; stroke-width:147.638; stroke-opacity:1; 
stroke-linecap:round; stroke-linejoin:round;">
<path d="M6947 7214
L6919 7298
L6891 7327
L6835 7355
L6750 7355
L6694 7327
L6666 7298
L6638 7242
L6638 7017
L7228 7017
L7228 7214
L7200 7270
L7172 7298
L7116 7327
L7060 7327
L7003 7298
L6975 7270
L6947 7214
L6947 7017
" />
<path d="M7228 7720
L7228 7833
L7200 7889
L7144 7945
L7031 7973
L6835 7973
L6722 7945
L6666 7889
L6638 7833
L6638 7720
L6666 7664
L6722 7608
L6835 7580
L7031 7580
L7144 7608
L7200 7664
L7228 7720
" />
<path d="M6666 8198
L6638 8283
L6638 8423
L6666 8480
L6694 8508
L6750 8536
L6807 8536
L6863 8508
L6891 8480
L6919 8423
L6947 8311
L6975 8255
L7003 8226
L7060 8198
L7116 8198
L7172 8226
L7200 8255
L7228 8311
L7228 8451
L7200 8536
" />
<path d="M6694 9126
L6666 9098
L6638 9014
L6638 8958
L6666 8873
L6722 8817
L6778 8789
L6891 8761
L6975 8761
L7088 8789
L7144 8817
L7200 8873
L7228 8958
L7228 9014
L7200 9098
L7172 9126
" />
<path d="M7228 9492
L7228 9604
L7200 9661
L7144 9717
L7031 9745
L6835 9745
L6722 9717
L6666 9661
L6638 9604
L6638 9492
L6666 9436
L6722 9379
L6835 9351
L7031 9351
L7144 9379
L7200 9436
L7228 9492
" />
<path d="M7228 9914
L6638 10111
L7228 10307
" />
<path d="M6947 10504
L6947 10701
" />
<path d="M6638 10785
L6638 10504
L7228 10504
L7228 10785
" />
<path d="M6638 11376
L6919 11179
" />
<path d="M6638 11039
L7228 11039
L7228 11264
L7200 11320
L7172 11348
L7116 11376
L7031 11376
L6975 11348
L6947 11320
L6919 11264
L6919 11039
" />
<path d="M6919 11742
L6638 11742
" />
<path d="M7228 11545
L6919 11742
L7228 11938
" />
<path d="M6666 12107
L6638 12192
L6638 12332
L6666 12388
L6694 12417
L6750 12445
L6807 12445
L6863 12417
L6891 12388
L6919 12332
L6947 12220
L6975 12163
L7003 12135
L7060 12107
L7116 12107
L7172 12135
L7200 12163
L7228 12220
L7228 12360
L7200 12445
" />
<path d="M6807 12670
L6807 12951
" />
<path d="M6638 12613
L7228 12810
L6638 13007
" />
<path d="M7228 13120
L7228 13457
" />
<path d="M6638 13288
L7228 13288
" />
<path d="M7172 14076
L7200 14104
L7228 14160
L7228 14301
L7200 14357
L7172 14385
L7116 14413
L7060 14413
L6975 14385
L6638 14048
L6638 14413
" />
<path d="M7228 14779
L7228 14835
L7200 14891
L7172 14919
L7116 14947
L7003 14976
L6863 14976
L6750 14947
L6694 14919
L6666 14891
L6638 14835
L6638 14779
L6666 14723
L6694 14694
L6750 14666
L6863 14638
L7003 14638
L7116 14666
L7172 14694
L7200 14723
L7228 14779
" />
<path d="M6638 15538
L6638 15201
" />
<path d="M6638 15369
L7228 15369
L7144 15313
L7088 15257
L7060 15201
" />
<path d="M7228 16044
L7228 15932
L7200 15875
L7172 15847
L7088 15791
L6975 15763
L6750 15763
L6694 15791
L6666 15819
L6638 15875
L6638 15988
L6666 16044
L6694 16072
L6750 16100
L6891 16100
L6947 16072
L6975 16044
L7003 15988
L7003 15875
L6975 15819
L6947 15791
L6891 15763
" />
<path d="M5691 7411
L5663 7495
L5663 7636
L5691 7692
L5720 7720
L5776 7748
L5832 7748
L5888 7720
L5916 7692
L5945 7636
L5973 7523
L6001 7467
L6029 7439
L6085 7411
L6141 7411
L6198 7439
L6226 7467
L6254 7523
L6254 7664
L6226 7748
" />
<path d="M5832 7973
L5832 8255
" />
<path d="M5663 7917
L6254 8114
L5663 8311
" />
<path d="M6254 8423
L6254 8761
" />
<path d="M5663 8592
L6254 8592
" />
<path d="M5663 9408
L6254 9408
L6254 9633
L6226 9689
L6198 9717
L6141 9745
L6057 9745
L6001 9717
L5973 9689
L5945 9633
L5945 9408
" />
<path d="M6254 10111
L6254 10223
L6226 10279
L6170 10336
L6057 10364
L5860 10364
L5748 10336
L5691 10279
L5663 10223
L5663 10111
L5691 10054
L5748 9998
L5860 9970
L6057 9970
L6170 9998
L6226 10054
L6254 10111
" />
<path d="M6254 10561
L5663 10701
L6085 10814
L5663 10926
L6254 11067
" />
<path d="M5973 11292
L5973 11489
" />
<path d="M5663 11573
L5663 11292
L6254 11292
L6254 11573
" />
<path d="M5663 12163
L5945 11967
" />
<path d="M5663 11826
L6254 11826
L6254 12051
L6226 12107
L6198 12135
L6141 12163
L6057 12163
L6001 12135
L5973 12107
L5945 12051
L5945 11826
" />
<path d="M5691 12838
L5663 12923
L5663 13063
L5691 13120
L5720 13148
L5776 13176
L5832 13176
L5888 13148
L5916 13120
L5945 13063
L5973 12951
L6001 12895
L6029 12866
L6085 12838
L6141 12838
L6198 12866
L6226 12895
L6254 12951
L6254 13091
L6226 13176
" />
<path d="M5663 13429
L6254 13429
" />
<path d="M5973 13429
L5973 13766
" />
<path d="M5663 13766
L6254 13766
" />
<path d="M5663 14048
L6254 14048
" />
<path d="M5973 14329
L5973 14526
" />
<path d="M5663 14610
L5663 14329
L6254 14329
L6254 14610
" />
<path d="M5663 15144
L5663 14863
L6254 14863
" />
<path d="M5663 15341
L6254 15341
L6254 15482
L6226 15566
L6170 15622
L6113 15651
L6001 15679
L5916 15679
L5804 15651
L5748 15622
L5691 15566
L5663 15482
L5663 15341
" />
<path d="M5280 10645
L4689 10842
L5280 11039
" />
<path d="M5223 11207
L5251 11235
L5280 11292
L5280 11432
L5251 11489
L5223 11517
L5167 11545
L5111 11545
L5026 11517
L4689 11179
L4689 11545
" />
<path d="M4745 11798
L4717 11826
L4689 11798
L4717 11770
L4745 11798
L4689 11798
" />
<path d="M5280 12192
L5280 12248
L5251 12304
L5223 12332
L5167 12360
L5055 12388
L4914 12388
L4801 12360
L4745 12332
L4717 12304
L4689 12248
L4689 12192
L4717 12135
L4745 12107
L4801 12079
L4914 12051
L5055 12051
L5167 12079
L5223 12107
L5251 12135
L5280 12192
" />
</g>
<g style="fill:#000000; fill-opacity:0.0; 
stroke:#000000; stroke-width:59.0551; stroke-opacity:1; 
stroke-linecap:round; stroke-linejoin:round;">
<path d="M30340 31230
L30340 915
" />
<path d="M25 31230
L30340 31230
" />
<path d="M25 915
L25 31230
" />
<path d="M30340 915
L25 915
" />
</g>
<g style="fill:#000000; fill-opacity:0.0; 
stroke:#000000; stroke-width:0; stroke-opacity:1; 
stroke-linecap:round; stroke-linejoin:round;">
</g>
<g style="fill:#000000; fill-opacity:1.0; 
stroke:#000000; stroke-width:0; stroke-opacity:1; 
stroke-linecap:round; stroke-linejoin:round;">
<polyline style="fill-rule:evenodd;"
points="22466,28080
22466,29655
24828,29655
24828,28080
22466,28080
" /> 
<polyline style="fill-rule:evenodd;"
points="22466,1702
22466,3277
24828,3277
24828,1702
22466,1702
" /> 
<polyline style="fill-rule:evenodd;"
points="7505,3277
7505,1702
5143,1702
5143,3277
7505,3277
" /> 
<polyline style="fill-rule:evenodd;"
points="7505,29655
7505,28080
5143,28080
5143,29655
7505,29655
" /> 
<polyline style="fill-rule:evenodd;"
points="29198,23789
29198,22923
28332,22923
28332,23789
29198,23789
" /> 
</g>
<g style="fill:#000000; fill-opacity:1.0; 
stroke:#000000; stroke-width:905.512; stroke-opacity:1; 
stroke-linecap:round; stroke-linejoin:round;">
</g>
<g style="fill:#000000; fill-opacity:0.0; 
stroke:#000000; stroke-width:905.512; stroke-opacity:1; 
stroke-linecap:round; stroke-linejoin:round;">
<path d="M28765 24356
L28765 24356
" />
</g>
<g style="fill:#000000; fill-opacity:0.0; 
stroke:#000000; stroke-width:0; stroke-opacity:1; 
stroke-linecap:round; stroke-linejoin:round;">
</g>
<g style="fill:#000000; fill-opacity:1.0; 
stroke:#000000; stroke-width:0; stroke-opacity:1; 
stroke-linecap:round; stroke-linejoin:round;">
<polyline style="fill-rule:evenodd;"
points="18568,2923
18568,2057
17702,2057
17702,2923
18568,2923
" /> 
</g>
<g style="fill:#000000; fill-opacity:1.0; 
stroke:#000000; stroke-width:905.512; stroke-opacity:1; 
stroke-linecap:round; stroke-linejoin:round;">
</g>
<g style="fill:#000000; fill-opacity:0.0; 
stroke:#000000; stroke-width:905.512; stroke-opacity:1; 
stroke-linecap:round; stroke-linejoin:round;">
<path d="M18135 3490
L18135 3490
" />
</g>
<g style="fill:#000000; fill-opacity:0.0; 
stroke:#000000; stroke-width:0; stroke-opacity:1; 
stroke-linecap:round; stroke-linejoin:round;">
</g>
<g style="fill:#000000; fill-opacity:1.0; 
stroke:#000000; stroke-width:0; stroke-opacity:1; 
stroke-linecap:round; stroke-linejoin:round;">
<polyline style="fill-rule:evenodd;"
points="16600,2923
16600,2057
15734,2057
15734,2923
16600,2923
" /> 
</g>
<g style="fill:#000000; fill-opacity:1.0; 
stroke:#000000; stroke-width:905.512; stroke-opacity:1; 
stroke-linecap:round; stroke-linejoin:round;">
</g>
<g style="fill:#000000; fill-opacity:0.0; 
stroke:#000000; stroke-width:905.512; stroke-opacity:1; 
stroke-linecap:round; stroke-linejoin:round;">
<path d="M16167 3490
L16167 3490
" />
</g>
<g style="fill:#000000; fill-opacity:0.0; 
stroke:#000000; stroke-width:0; stroke-opacity:1; 
stroke-linecap:round; stroke-linejoin:round;">
</g>
<g style="fill:#000000; fill-opacity:1.0; 
stroke:#000000; stroke-width:0; stroke-opacity:1; 
stroke-linecap:round; stroke-linejoin:round;">
<polyline style="fill-rule:evenodd;"
points="14631,2923
14631,2057
13765,2057
13765,2923
14631,2923
" /> 
</g>
<g style="fill:#000000; fill-opacity:1.0; 
stroke:#000000; stroke-width:905.512; stroke-opacity:1; 
stroke-linecap:round; stroke-linejoin:round;">
</g>
<g style="fill:#000000; fill-opacity:0.0; 
stroke:#000000; stroke-width:905.512; stroke-opacity:1; 
stroke-linecap:round; stroke-linejoin:round;">
<path d="M14198 3490
L14198 3490
" />
</g>
<g style="fill:#000000; fill-opacity:0.0; 
stroke:#000000; stroke-width:0; stroke-opacity:1; 
stroke-linecap:round; stroke-linejoin:round;">
</g>
<g style="fill:#000000; fill-opacity:1.0; 
stroke:#000000; stroke-width:0; stroke-opacity:1; 
stroke-linecap:round; stroke-linejoin:round;">
<polyline style="fill-rule:evenodd;"
points="12663,2923
12663,2057
11797,2057
11797,2923
12663,2923
" /> 
</g>
<g style="fill:#000000; fill-opacity:1.0; 
stroke:#000000; stroke-width:905.512; stroke-opacity:1; 
stroke-linecap:round; stroke-linejoin:round;">
</g>
<g style="fill:#000000; fill-opacity:0.0; 
stroke:#000000; stroke-width:905.512; stroke-opacity:1; 
stroke-linecap:round; stroke-linejoin:round;">
<path d="M12230 3490
L12230 3490
" />
</g>
<g style="fill:#000000; fill-opacity:0.0; 
stroke:#000000; stroke-width:0; stroke-opacity:1; 
stroke-linecap:round; stroke-linejoin:round;">
</g>
<g style="fill:#000000; fill-opacity:1.0; 
stroke:#000000; stroke-width:0; stroke-opacity:1; 
stroke-linecap:round; stroke-linejoin:round;">
<polyline style="fill-rule:evenodd;"
points="17495,25816
19562,25816
19562,24832
17495,24832
17495,25816
" /> 
<polyline style="fill-rule:evenodd;"
points="17495,24635
19562,24635
19562,23651
17495,23651
17495,24635
" /> 
<polyline style="fill-rule:evenodd;"
points="17495,23454
19562,23454
19562,22470
17495,22470
17495,23454
" /> 
<circle cx="11167.2" cy="18793.3" r="393.701" /> 
</g>
<g style="fill:#000000; fill-opacity:1.0; 
stroke:#000000; stroke-width:39.3701; stroke-opacity:1; 
stroke-linecap:round; stroke-linejoin:round;">
</g>
<g style="fill:#000000; fill-opacity:1.0; 
stroke:#000000; stroke-width:0; stroke-opacity:1; 
stroke-linecap:round; stroke-linejoin:round;">
<circle cx="12167.2" cy="18793.3" r="393.701" /> 
</g>
<g style="fill:#000000; fill-opacity:1.0; 
stroke:#000000; stroke-width:39.3701; stroke-opacity:1; 
stroke-linecap:round; stroke-linejoin:round;">
</g>
<g style="fill:#000000; fill-opacity:1.0; 
stroke:#000000; stroke-width:0; stroke-opacity:1; 
stroke-linecap:round; stroke-linejoin:round;">
<circle cx="15167.2" cy="18793.3" r="393.701" /> 
</g>
<g style="fill:#000000; fill-opacity:1.0; 
stroke:#000000; stroke-width:39.3701; stroke-opacity:1; 
stroke-linecap:round; stroke-linejoin:round;">
</g>
<g style="fill:#000000; fill-opacity:1.0; 
stroke:#000000; stroke-width:0; stroke-opacity:1; 
stroke-linecap:round; stroke-linejoin:round;">
<circle cx="16167.2" cy="18793.3" r="393.701" /> 
</g>
<g style="fill:#000000; fill-opacity:1.0; 
stroke:#000000; stroke-width:39.3701; stroke-opacity:1; 
stroke-linecap:round; stroke-linejoin:round;">
</g>
<g style="fill:#000000; fill-opacity:1.0; 
stroke:#000000; stroke-width:0; stroke-opacity:1; 
stroke-linecap:round; stroke-linejoin:round;">
<circle cx="11167.2" cy="27293.3" r="393.701" /> 
</g>
<g style="fill:#000000; fill-opacity:1.0; 
stroke:#000000; stroke-width:39.3701; stroke-opacity:1; 
stroke-linecap:round; stroke-linejoin:round;">
</g>
<g style="fill:#000000; fill-opacity:1.0; 
stroke:#000000; stroke-width:0; stroke-opacity:1; 
stroke-linecap:round; stroke-linejoin:round;">
<polyline style="fill-rule:evenodd;"
points="15773,26899
15773,27687
16560,27687
16560,26899
15773,26899
" /> 
<circle cx="11167.2" cy="5801.18" r="393.701" /> 
</g>
<g style="fill:#000000; fill-opacity:1.0; 
stroke:#000000; stroke-width:39.3701; stroke-opacity:1; 
stroke-linecap:round; stroke-linejoin:round;">
</g>
<g style="fill:#000000; fill-opacity:1.0; 
stroke:#000000; stroke-width:0; stroke-opacity:1; 
stroke-linecap:round; stroke-linejoin:round;">
<circle cx="12167.2" cy="5801.18" r="393.701" /> 
</g>
<g style="fill:#000000; fill-opacity:1.0; 
stroke:#000000; stroke-width:39.3701; stroke-opacity:1; 
stroke-linecap:round; stroke-linejoin:round;">
</g>
<g style="fill:#000000; fill-opacity:1.0; 
stroke:#000000; stroke-width:0; stroke-opacity:1; 
stroke-linecap:round; stroke-linejoin:round;">
<circle cx="15167.2" cy="5801.18" r="393.701" /> 
</g>
<g style="fill:#000000; fill-opacity:1.0; 
stroke:#000000; stroke-width:39.3701; stroke-opacity:1; 
stroke-linecap:round; stroke-linejoin:round;">
</g>
<g style="fill:#000000; fill-opacity:1.0; 
stroke:#000000; stroke-width:0; stroke-opacity:1; 
stroke-linecap:round; stroke-linejoin:round;">
<circle cx="16167.2" cy="5801.18" r="393.701" /> 
</g>
<g style="fill:#000000; fill-opacity:1.0; 
stroke:#000000; stroke-width:39.3701; stroke-opacity:1; 
stroke-linecap:round; stroke-linejoin:round;">
</g>
<g style="fill:#000000; fill-opacity:1.0; 
stroke:#000000; stroke-width:0; stroke-opacity:1; 
stroke-linecap:round; stroke-linejoin:round;">
<circle cx="11167.2" cy="14301.2" r="393.701" /> 
</g>
<g style="fill:#000000; fill-opacity:1.0; 
stroke:#000000; stroke-width:39.3701; stroke-opacity:1; 
stroke-linecap:round; stroke-linejoin:round;">
</g>
<g style="fill:#000000; fill-opacity:1.0; 
stroke:#000000; stroke-width:0; stroke-opacity:1; 
stroke-linecap:round; stroke-linejoin:round;">
<polyline style="fill-rule:evenodd;"
points="15773,13907
15773,14694
16560,14694
16560,13907
15773,13907
" /> 
<circle cx="28962.5" cy="2293.31" r="885.827" /> 
</g>
<g style="fill:#000000; fill-opacity:1.0; 
stroke:#000000; stroke-width:39.3701; stroke-opacity:1; 
stroke-linecap:round; stroke-linejoin:round;">
</g>
<g style="fill:#000000; fill-opacity:1.0; 
stroke:#000000; stroke-width:0; stroke-opacity:1; 
stroke-linecap:round; stroke-linejoin:round;">
<circle cx="28962.5" cy="29852.4" r="885.827" /> 
</g>
<g style="fill:#000000; fill-opacity:1.0; 
stroke:#000000; stroke-width:39.3701; stroke-opacity:1; 
stroke-linecap:round; stroke-linejoin:round;">
</g>
<g style="fill:#000000; fill-opacity:1.0; 
stroke:#000000; stroke-width:0; stroke-opacity:1; 
stroke-linecap:round; stroke-linejoin:round;">
<circle cx="1403.46" cy="2293.31" r="885.827" /> 
</g>
<g style="fill:#000000; fill-opacity:1.0; 
stroke:#000000; stroke-width:39.3701; stroke-opacity:1; 
stroke-linecap:round; stroke-linejoin:round;">
</g>
<g style="fill:#000000; fill-opacity:1.0; 
stroke:#000000; stroke-width:0; stroke-opacity:1; 
stroke-linecap:round; stroke-linejoin:round;">
<circle cx="1403.46" cy="29852.4" r="885.827" /> 
</g>
<g style="fill:#000000; fill-opacity:1.0; 
stroke:#000000; stroke-width:39.3701; stroke-opacity:1; 
stroke-linecap:round; stroke-linejoin:round;">
</g>
<g style="fill:#000000; fill-opacity:1.0; 
stroke:#000000; stroke-width:393.701; stroke-opacity:1; 
stroke-linecap:round; stroke-linejoin:round;">
</g>
<g style="fill:#000000; fill-opacity:0.0; 
stroke:#000000; stroke-width:393.701; stroke-opacity:1; 
stroke-linecap:round; stroke-linejoin:round;">
<path d="M11167 14301
L11167 15167
" />
<path d="M9710 30442
L11167 28986
" />
<path d="M4749 30442
L9710 30442
" />
<path d="M4159 29852
L4749 30442
" />
<path d="M4159 22175
L4159 29852
" />
<path d="M11167 15167
L4159 22175
" />
<path d="M11167 14301
L11167 7490
" />
<path d="M11167 7490
L11639 7017
" />
<path d="M12623 30442
L11167 28986
" />
<path d="M11167 28986
L11167 27293
" />
<path d="M11167 5801
L11167 6545
" />
<path d="M11639 7017
L13017 7017
" />
<path d="M11167 6545
L11639 7017
" />
<path d="M28765 24356
L27765 24356
" />
<path d="M27765 24356
L26403 25718
" />
<path d="M26403 25718
L26403 29852
" />
<path d="M26403 29852
L25812 30442
" />
<path d="M25812 30442
L12623 30442
" />
<path d="M13411 4277
L14198 3490
" />
<path d="M13411 6624
L13411 4277
" />
<path d="M13017 7017
L13411 6624
" />
<path d="M18135 3490
L16167 3490
" />
<path d="M16167 3490
L14198 3490
" />
<path d="M14198 3490
L12230 3490
" />
<path d="M23647 2490
L23647 8789
" />
<path d="M15167 17269
L15167 18793
" />
<path d="M23647 8789
L15167 17269
" />
<path d="M15167 5801
L15167 9395
" />
<path d="M6324 21387
L6324 28474
" />
<path d="M13805 13907
L6324 21387
" />
<path d="M13805 10757
L13805 13907
" />
<path d="M15167 9395
L13805 10757
" />
<path d="M28765 23356
L27781 23356
" />
<path d="M27781 23356
L25812 25324
" />
<path d="M25812 25324
L18529 25324
" />
<path d="M16167 14301
L16167 12332
" />
<path d="M19119 2490
L18135 2490
" />
<path d="M19710 3080
L19119 2490
" />
<path d="M19710 8789
L19710 3080
" />
<path d="M16167 12332
L19710 8789
" />
<path d="M16167 27293
L16167 21387
" />
<path d="M16167 14301
L16167 14301
" />
<path d="M13805 16663
L16167 14301
" />
<path d="M13805 19025
L13805 16663
" />
<path d="M16167 21387
L13805 19025
" />
<path d="M12230 2490
L14198 2490
" />
<path d="M14198 2490
L16167 2490
" />
<path d="M16167 2490
L18135 2490
" />
<path d="M18529 24143
L18529 22962
" />
<path d="M18529 22962
L18529 19812
" />
<path d="M18529 19812
L17509 18793
" />
<path d="M17509 18793
L16167 18793
" />
<path d="M11167 18793
L11167 17923
" />
<path d="M16167 10364
L16167 5801
" />
<path d="M14986 11545
L16167 10364
" />
<path d="M14986 14104
L14986 11545
" />
<path d="M11167 17923
L14986 14104
" />
<path d="M23844 28868
L15773 28868
" />
<path d="M14789 21415
L12167 18793
" />
<path d="M14789 27883
L14789 21415
" />
<path d="M15773 28868
L14789 27883
" />
<path d="M6324 2490
L7505 2490
" />
<path d="M7505 2490
L9474 4458
" />
<path d="M9474 4458
L11442 4458
" />
<path d="M11442 4458
L12167 5183
" />
<path d="M12167 5183
L12167 5801
" />
</g>
<g style="fill:#000000; fill-opacity:1.0; 
stroke:#000000; stroke-width:100; stroke-opacity:1; 
stroke-linecap:round; stroke-linejoin:round;">
<polyline style="fill-rule:evenodd;"
points="2046,1329
2365,1649
2539,2066
2539,2518
2366,2935
2047,3255
1630,3428
1178,3429
760,3256
441,2937
305,2609
305,29536
439,29209
759,28890
1176,28716
1628,28716
2046,28888
2365,29208
2539,29625
2539,30077
2366,30494
2047,30814
1719,30950
28646,30950
28319,30815
28000,30496
27826,30079
27826,29627
27999,29209
28318,28890
28735,28716
29187,28716
29605,28888
29924,29208
30060,29535
30060,28080
25083,28080
25083,29655
25066,29748
25011,29833
24927,29890
24828,29910
22466,29910
22373,29892
22288,29838
22231,29754
22211,29655
22211,29314
15773,29314
15602,29280
15457,29184
14473,28199
14393,28080
14376,28054
14342,27883
14342,27747
11550,27747
11511,27852
11271,27941
11015,27931
10823,27852
10784,27747
11167,27364
11550,27747
14342,27747
14342,27189
11815,27189
11805,27445
11726,27637
11620,27676
11237,27293
11096,27293
10713,27676
10608,27637
10519,27397
10528,27141
10608,26949
10713,26910
11096,27293
11237,27293
11620,26910
11726,26949
11815,27189
14342,27189
14342,26839
11550,26839
11167,27222
10784,26839
10823,26734
11063,26645
11318,26654
11511,26734
11550,26839
14342,26839
14342,21600
12178,19436
12039,19437
11803,19339
11667,19203
11532,19338
11295,19436
11039,19437
10803,19339
10621,19158
10523,18921
10523,18665
10621,18429
10720,18329
10720,17923
10754,17752
10851,17607
14539,13919
14539,11545
14573,11374
14670,11229
15720,10179
15720,6264
15667,6211
15614,6264
15614,9395
15580,9566
15483,9711
14251,10942
14251,13907
14217,14078
14183,14130
14121,14223
6771,21572
6771,27825
7505,27825
7598,27843
7683,27897
7740,27981
7760,28080
7760,29655
7743,29748
7688,29833
7604,29890
7505,29910
5143,29910
5050,29892
4965,29838
4908,29754
4888,29655
4888,28080
4906,27988
4960,27902
5044,27845
5143,27825
5877,27825
5877,21387
5911,21216
6008,21071
12325,14754
11550,14754
11511,14859
11271,14949
11015,14939
10823,14859
10784,14754
11167,14371
11550,14754
12325,14754
12883,14197
11815,14197
11805,14452
11726,14645
11620,14684
11237,14301
11096,14301
10713,14684
10608,14645
10519,14405
10528,14149
10608,13956
10713,13918
11096,14301
11237,14301
11620,13918
11726,13956
11815,14197
12883,14197
13233,13847
11550,13847
11167,14230
10784,13847
10823,13742
11063,13653
11318,13662
11511,13742
11550,13847
13233,13847
13358,13722
13358,10757
13392,10586
13489,10441
14720,9210
14720,6553
7790,6553
7790,16537
4219,16537
4219,6553
7790,6553
14720,6553
14720,6264
14621,6166
14523,5929
14523,5673
14621,5437
14802,5255
15038,5157
15294,5157
15531,5255
15667,5390
15802,5255
16038,5157
16294,5157
16531,5255
16712,5436
16810,5672
16811,5928
16713,6165
16614,6264
16614,10364
16580,10535
16545,10586
16483,10680
15432,11730
15432,14104
15398,14275
15346,14354
15302,14420
11614,18108
11614,18329
11667,18382
11802,18247
12038,18149
12294,18149
12531,18247
12712,18428
12810,18664
12810,18805
15105,21099
15202,21244
15236,21415
15236,27698
15958,28421
22211,28421
22211,28080
22228,27988
22283,27902
22367,27845
22466,27825
24828,27825
24921,27843
25006,27897
25063,27981
25083,28080
30060,28080
30060,25016
29724,25016
29724,27601
27885,27601
27885,25016
28553,25016
28356,24927
28169,24727
28081,24515
28127,24406
28715,24406
28715,24414
28815,24414
28815,24406
29403,24406
29450,24515
29362,24727
29174,24927
28978,25016
29724,25016
30060,25016
30060,21142
29862,21142
29862,22814
29426,22814
29433,22824
29453,22923
29453,23789
29436,23882
29381,23967
29359,23982
29362,23984
29450,24197
29403,24306
28815,24306
28815,24298
28715,24298
28715,24306
28127,24306
28081,24197
28169,23984
28171,23982
28154,23972
28097,23888
28080,23803
27966,23803
26128,25640
25983,25737
25812,25771
19817,25771
19817,25816
19800,25909
19745,25994
19662,26051
19562,26071
19369,26071
19369,27827
17807,27827
17807,26071
17495,26071
17403,26054
17318,25999
17261,25916
17241,25816
17241,24832
17258,24740
17261,24735
17261,24734
17241,24635
17241,23651
17258,23558
17261,23554
17261,23553
17241,23454
17241,22470
17258,22377
17313,22292
17396,22235
17495,22215
18082,22215
18082,19998
17324,19240
16630,19240
16532,19338
16295,19436
16039,19437
15803,19339
15667,19203
15532,19338
15295,19436
15039,19437
14803,19339
14621,19158
14523,18921
14523,18665
14621,18429
14720,18329
14720,17269
14754,17098
14851,16953
23200,8604
23200,3532
22466,3532
22373,3515
22288,3460
22231,3376
22211,3277
22211,1702
22220,1654
21594,1654
21594,3326
20157,3326
20157,8789
20123,8960
20043,9079
20026,9105
16614,12517
16614,13662
16653,13670
16738,13724
16795,13808
16815,13907
16815,14694
16798,14787
16743,14872
16660,14929
16560,14949
16150,14949
14251,16848
14251,18840
16483,21071
16580,21216
16614,21387
16614,26654
16653,26662
16738,26716
16795,26800
16815,26899
16815,27687
16798,27779
16743,27864
16660,27921
16560,27941
15773,27941
15680,27924
15595,27869
15538,27786
15518,27687
15518,26899
15536,26806
15590,26721
15674,26664
15720,26655
15720,21572
13489,19341
13392,19196
13384,19158
13358,19025
13358,16663
13392,16492
13489,16347
15518,14317
15518,13907
15536,13814
15590,13729
15674,13672
15720,13663
15720,12332
15754,12161
15851,12016
19263,8604
19263,3649
18820,3649
18732,3861
18544,4061
18294,4174
18185,4128
18185,3540
18085,3540
18085,4128
17976,4174
17726,4061
17539,3861
17451,3649
16851,3649
16763,3861
16576,4061
16326,4174
16217,4128
16217,3540
16117,3540
16117,4128
16008,4174
15758,4061
15570,3861
15482,3649
14883,3649
14795,3861
14607,4061
14357,4174
14248,4128
14248,3540
14148,3540
14148,4128
14039,4174
13789,4061
13602,3861
13514,3649
12914,3649
12826,3861
12639,4061
12389,4174
12280,4128
12280,3540
12868,3540
12914,3649
13514,3649
13560,3540
14148,3540
14248,3540
14837,3540
14883,3649
15482,3649
15528,3540
16117,3540
16217,3540
16805,3540
16851,3649
17451,3649
17497,3540
18085,3540
18185,3540
18774,3540
18820,3649
19263,3649
19263,3265
18934,2937
18821,2937
18806,3015
18751,3100
18729,3115
18732,3118
18820,3331
18774,3440
18185,3440
18185,3432
18085,3432
18085,3440
17497,3440
17451,3331
17539,3118
17541,3116
17524,3105
17467,3022
17450,2937
16852,2937
16837,3015
16783,3100
16761,3115
16763,3118
16851,3331
16805,3440
16217,3440
16217,3432
16117,3432
16117,3440
15528,3440
15482,3331
15570,3118
15572,3116
15556,3105
15499,3022
15482,2937
14884,2937
14869,3015
14814,3100
14792,3115
14795,3118
14883,3331
14837,3440
14248,3440
14248,3432
14148,3432
14148,3440
13560,3440
13514,3331
13602,3118
13604,3116
13587,3105
13530,3022
13513,2937
12915,2937
12900,3015
12846,3100
12824,3115
12826,3118
12914,3331
12868,3440
12280,3440
12280,3432
12180,3432
12180,3440
12172,3440
12172,3540
12180,3540
12180,4128
12071,4174
11821,4061
11633,3861
11614,3814
11614,4045
11737,4128
11758,4142
12483,4867
12580,5012
12614,5183
12614,5337
12712,5436
12810,5672
12811,5928
12713,6165
12532,6346
12295,6444
12039,6444
11803,6347
11710,6254
11550,6254
11511,6359
11271,6449
11015,6439
10823,6359
10784,6254
11167,5871
11550,6254
11710,6254
11634,6179
11620,6184
11237,5801
11096,5801
10713,6184
10608,6145
10519,5905
10528,5649
10608,5456
10713,5418
11096,5801
11237,5801
11620,5418
11634,5423
11705,5352
11699,5347
11550,5347
11167,5730
10784,5347
10823,5242
11063,5153
11318,5162
11511,5242
11550,5347
11699,5347
11257,4905
9474,4905
9303,4871
9158,4774
7744,3361
7743,3370
7688,3455
7604,3512
7505,3532
5143,3532
5050,3515
4965,3460
4908,3376
4888,3277
4888,1702
4906,1610
4960,1525
5044,1467
5143,1447
7505,1447
7598,1465
7683,1520
7740,1603
7760,1702
7760,2133
7821,2174
9659,4011
9775,4011
9775,1694
11614,1694
11614,1879
11614,1879
11697,1822
11797,1802
12663,1802
12755,1819
12841,1874
12898,1957
12915,2043
13513,2043
13528,1964
13582,1879
13666,1822
13765,1802
14631,1802
14724,1819
14809,1874
14866,1957
14883,2043
15481,2043
15496,1964
15551,1879
15635,1822
15734,1802
16600,1802
16692,1819
16778,1874
16835,1957
16852,2043
17450,2043
17465,1964
17519,1879
17603,1822
17702,1802
18568,1802
18661,1819
18746,1874
18803,1957
18820,2043
19119,2043
19291,2077
19435,2174
19598,2336
19598,1654
21594,1654
22220,1654
22228,1610
22283,1525
22367,1467
22466,1447
24828,1447
24921,1465
25006,1520
25063,1603
25083,1702
25083,3277
25066,3370
25011,3455
24927,3512
24828,3532
24094,3532
24094,8789
24060,8960
23980,9079
23963,9105
15614,17454
15614,18329
15667,18382
15802,18247
16038,18149
16294,18149
16531,18247
16630,18346
17509,18346
17680,18380
17752,18428
17825,18477
18845,19497
18942,19641
18976,19812
18976,22215
19027,22215
19027,19045
20866,19045
20866,22942
19817,22942
19817,23454
19800,23547
19797,23551
19797,23552
19817,23651
19817,24635
19800,24728
19797,24733
19797,24733
19817,24832
19817,24877
25627,24877
27465,23040
27581,22962
27610,22943
27781,22909
28080,22909
28095,22830
28105,22814
27866,22814
27866,21142
29862,21142
30060,21142
30060,2609
29925,2935
29606,3255
29189,3428
28737,3429
28319,3256
28000,2937
27826,2520
27826,2068
27999,1650
28318,1330
28646,1194
1719,1194
2046,1329
" /> 
</g>
<g style="fill:#FFFFFF; fill-opacity:1.0; 
stroke:#FFFFFF; stroke-width:100; stroke-opacity:1; 
stroke-linecap:round; stroke-linejoin:round;">
</g>
<g style="fill:#FFFFFF; fill-opacity:1.0; 
stroke:#FFFFFF; stroke-width:0; stroke-opacity:1; 
stroke-linecap:round; stroke-linejoin:round;">
<circle cx="23647.6" cy="28868.1" r="98.4252" /> 
</g>
<g style="fill:#FFFFFF; fill-opacity:1.0; 
stroke:#FFFFFF; stroke-width:39.3701; stroke-opacity:1; 
stroke-linecap:round; stroke-linejoin:round;">
</g>
<g style="fill:#FFFFFF; fill-opacity:1.0; 
stroke:#FFFFFF; stroke-width:0; stroke-opacity:1; 
stroke-linecap:round; stroke-linejoin:round;">
<circle cx="23647.6" cy="2490.16" r="98.4252" /> 
</g>
<g style="fill:#FFFFFF; fill-opacity:1.0; 
stroke:#FFFFFF; stroke-width:39.3701; stroke-opacity:1; 
stroke-linecap:round; stroke-linejoin:round;">
</g>
<g style="fill:#FFFFFF; fill-opacity:1.0; 
stroke:#FFFFFF; stroke-width:0; stroke-opacity:1; 
stroke-linecap:round; stroke-linejoin:round;">
<circle cx="6324.72" cy="2490.16" r="98.4252" /> 
</g>
<g style="fill:#FFFFFF; fill-opacity:1.0; 
stroke:#FFFFFF; stroke-width:39.3701; stroke-opacity:1; 
stroke-linecap:round; stroke-linejoin:round;">
</g>
<g style="fill:#FFFFFF; fill-opacity:1.0; 
stroke:#FFFFFF; stroke-width:0; stroke-opacity:1; 
stroke-linecap:round; stroke-linejoin:round;">
<circle cx="6324.72" cy="28868.1" r="98.4252" /> 
</g>
<g style="fill:#FFFFFF; fill-opacity:1.0; 
stroke:#FFFFFF; stroke-width:39.3701; stroke-opacity:1; 
stroke-linecap:round; stroke-linejoin:round;">
</g>
<g style="fill:#FFFFFF; fill-opacity:1.0; 
stroke:#FFFFFF; stroke-width:0; stroke-opacity:1; 
stroke-linecap:round; stroke-linejoin:round;">
<circle cx="28765.7" cy="23356.3" r="98.4252" /> 
</g>
<g style="fill:#FFFFFF; fill-opacity:1.0; 
stroke:#FFFFFF; stroke-width:39.3701; stroke-opacity:1; 
stroke-linecap:round; stroke-linejoin:round;">
</g>
<g style="fill:#FFFFFF; fill-opacity:1.0; 
stroke:#FFFFFF; stroke-width:0; stroke-opacity:1; 
stroke-linecap:round; stroke-linejoin:round;">
<circle cx="28765.7" cy="24356.3" r="98.4252" /> 
</g>
<g style="fill:#FFFFFF; fill-opacity:1.0; 
stroke:#FFFFFF; stroke-width:39.3701; stroke-opacity:1; 
stroke-linecap:round; stroke-linejoin:round;">
</g>
<g style="fill:#FFFFFF; fill-opacity:1.0; 
stroke:#FFFFFF; stroke-width:0; stroke-opacity:1; 
stroke-linecap:round; stroke-linejoin:round;">
<circle cx="18135.7" cy="2490.16" r="98.4252" /> 
</g>
<g style="fill:#FFFFFF; fill-opacity:1.0; 
stroke:#FFFFFF; stroke-width:39.3701; stroke-opacity:1; 
stroke-linecap:round; stroke-linejoin:round;">
</g>
<g style="fill:#FFFFFF; fill-opacity:1.0; 
stroke:#FFFFFF; stroke-width:0; stroke-opacity:1; 
stroke-linecap:round; stroke-linejoin:round;">
<circle cx="18135.7" cy="3490.16" r="98.4252" /> 
</g>
<g style="fill:#FFFFFF; fill-opacity:1.0; 
stroke:#FFFFFF; stroke-width:39.3701; stroke-opacity:1; 
stroke-linecap:round; stroke-linejoin:round;">
</g>
<g style="fill:#FFFFFF; fill-opacity:1.0; 
stroke:#FFFFFF; stroke-width:0; stroke-opacity:1; 
stroke-linecap:round; stroke-linejoin:round;">
<circle cx="16167.2" cy="2490.16" r="98.4252" /> 
</g>
<g style="fill:#FFFFFF; fill-opacity:1.0; 
stroke:#FFFFFF; stroke-width:39.3701; stroke-opacity:1; 
stroke-linecap:round; stroke-linejoin:round;">
</g>
<g style="fill:#FFFFFF; fill-opacity:1.0; 
stroke:#FFFFFF; stroke-width:0; stroke-opacity:1; 
stroke-linecap:round; stroke-linejoin:round;">
<circle cx="16167.2" cy="3490.16" r="98.4252" /> 
</g>
<g style="fill:#FFFFFF; fill-opacity:1.0; 
stroke:#FFFFFF; stroke-width:39.3701; stroke-opacity:1; 
stroke-linecap:round; stroke-linejoin:round;">
</g>
<g style="fill:#FFFFFF; fill-opacity:1.0; 
stroke:#FFFFFF; stroke-width:0; stroke-opacity:1; 
stroke-linecap:round; stroke-linejoin:round;">
<circle cx="14198.7" cy="2490.16" r="98.4252" /> 
</g>
<g style="fill:#FFFFFF; fill-opacity:1.0; 
stroke:#FFFFFF; stroke-width:39.3701; stroke-opacity:1; 
stroke-linecap:round; stroke-linejoin:round;">
</g>
<g style="fill:#FFFFFF; fill-opacity:1.0; 
stroke:#FFFFFF; stroke-width:0; stroke-opacity:1; 
stroke-linecap:round; stroke-linejoin:round;">
<circle cx="14198.7" cy="3490.16" r="98.4252" /> 
</g>
<g style="fill:#FFFFFF; fill-opacity:1.0; 
stroke:#FFFFFF; stroke-width:39.3701; stroke-opacity:1; 
stroke-linecap:round; stroke-linejoin:round;">
</g>
<g style="fill:#FFFFFF; fill-opacity:1.0; 
stroke:#FFFFFF; stroke-width:0; stroke-opacity:1; 
stroke-linecap:round; stroke-linejoin:round;">
<circle cx="12230.2" cy="2490.16" r="98.4252" /> 
</g>
<g style="fill:#FFFFFF; fill-opacity:1.0; 
stroke:#FFFFFF; stroke-width:39.3701; stroke-opacity:1; 
stroke-linecap:round; stroke-linejoin:round;">
</g>
<g style="fill:#FFFFFF; fill-opacity:1.0; 
stroke:#FFFFFF; stroke-width:0; stroke-opacity:1; 
stroke-linecap:round; stroke-linejoin:round;">
<circle cx="12230.2" cy="3490.16" r="98.4252" /> 
</g>
<g style="fill:#FFFFFF; fill-opacity:1.0; 
stroke:#FFFFFF; stroke-width:39.3701; stroke-opacity:1; 
stroke-linecap:round; stroke-linejoin:round;">
</g>
<g style="fill:#FFFFFF; fill-opacity:1.0; 
stroke:#FFFFFF; stroke-width:0; stroke-opacity:1; 
stroke-linecap:round; stroke-linejoin:round;">
<circle cx="18529.4" cy="25324.8" r="98.4252" /> 
</g>
<g style="fill:#FFFFFF; fill-opacity:1.0; 
stroke:#FFFFFF; stroke-width:39.3701; stroke-opacity:1; 
stroke-linecap:round; stroke-linejoin:round;">
</g>
<g style="fill:#FFFFFF; fill-opacity:1.0; 
stroke:#FFFFFF; stroke-width:0; stroke-opacity:1; 
stroke-linecap:round; stroke-linejoin:round;">
<circle cx="18529.4" cy="24143.7" r="98.4252" /> 
</g>
<g style="fill:#FFFFFF; fill-opacity:1.0; 
stroke:#FFFFFF; stroke-width:39.3701; stroke-opacity:1; 
stroke-linecap:round; stroke-linejoin:round;">
</g>
<g style="fill:#FFFFFF; fill-opacity:1.0; 
stroke:#FFFFFF; stroke-width:0; stroke-opacity:1; 
stroke-linecap:round; stroke-linejoin:round;">
<circle cx="18529.4" cy="22962.6" r="98.4252" /> 
</g>
<g style="fill:#FFFFFF; fill-opacity:1.0; 
stroke:#FFFFFF; stroke-width:39.3701; stroke-opacity:1; 
stroke-linecap:round; stroke-linejoin:round;">
</g>
<g style="fill:#FFFFFF; fill-opacity:1.0; 
stroke:#FFFFFF; stroke-width:0; stroke-opacity:1; 
stroke-linecap:round; stroke-linejoin:round;">
<circle cx="11167.2" cy="18793.3" r="98.4252" /> 
</g>
<g style="fill:#FFFFFF; fill-opacity:1.0; 
stroke:#FFFFFF; stroke-width:39.3701; stroke-opacity:1; 
stroke-linecap:round; stroke-linejoin:round;">
</g>
<g style="fill:#FFFFFF; fill-opacity:1.0; 
stroke:#FFFFFF; stroke-width:0; stroke-opacity:1; 
stroke-linecap:round; stroke-linejoin:round;">
<circle cx="12167.2" cy="18793.3" r="98.4252" /> 
</g>
<g style="fill:#FFFFFF; fill-opacity:1.0; 
stroke:#FFFFFF; stroke-width:39.3701; stroke-opacity:1; 
stroke-linecap:round; stroke-linejoin:round;">
</g>
<g style="fill:#FFFFFF; fill-opacity:1.0; 
stroke:#FFFFFF; stroke-width:0; stroke-opacity:1; 
stroke-linecap:round; stroke-linejoin:round;">
<circle cx="15167.2" cy="18793.3" r="98.4252" /> 
</g>
<g style="fill:#FFFFFF; fill-opacity:1.0; 
stroke:#FFFFFF; stroke-width:39.3701; stroke-opacity:1; 
stroke-linecap:round; stroke-linejoin:round;">
</g>
<g style="fill:#FFFFFF; fill-opacity:1.0; 
stroke:#FFFFFF; stroke-width:0; stroke-opacity:1; 
stroke-linecap:round; stroke-linejoin:round;">
<circle cx="16167.2" cy="18793.3" r="98.4252" /> 
</g>
<g style="fill:#FFFFFF; fill-opacity:1.0; 
stroke:#FFFFFF; stroke-width:39.3701; stroke-opacity:1; 
stroke-linecap:round; stroke-linejoin:round;">
</g>
<g style="fill:#FFFFFF; fill-opacity:1.0; 
stroke:#FFFFFF; stroke-width:0; stroke-opacity:1; 
stroke-linecap:round; stroke-linejoin:round;">
<circle cx="11167.2" cy="27293.3" r="98.4252" /> 
</g>
<g style="fill:#FFFFFF; fill-opacity:1.0; 
stroke:#FFFFFF; stroke-width:39.3701; stroke-opacity:1; 
stroke-linecap:round; stroke-linejoin:round;">
</g>
<g style="fill:#FFFFFF; fill-opacity:1.0; 
stroke:#FFFFFF; stroke-width:0; stroke-opacity:1; 
stroke-linecap:round; stroke-linejoin:round;">
<circle cx="16167.2" cy="27293.3" r="98.4252" /> 
</g>
<g style="fill:#FFFFFF; fill-opacity:1.0; 
stroke:#FFFFFF; stroke-width:39.3701; stroke-opacity:1; 
stroke-linecap:round; stroke-linejoin:round;">
</g>
<g style="fill:#FFFFFF; fill-opacity:1.0; 
stroke:#FFFFFF; stroke-width:0; stroke-opacity:1; 
stroke-linecap:round; stroke-linejoin:round;">
<circle cx="11167.2" cy="5801.18" r="98.4252" /> 
</g>
<g style="fill:#FFFFFF; fill-opacity:1.0; 
stroke:#FFFFFF; stroke-width:39.3701; stroke-opacity:1; 
stroke-linecap:round; stroke-linejoin:round;">
</g>
<g style="fill:#FFFFFF; fill-opacity:1.0; 
stroke:#FFFFFF; stroke-width:0; stroke-opacity:1; 
stroke-linecap:round; stroke-linejoin:round;">
<circle cx="12167.2" cy="5801.18" r="98.4252" /> 
</g>
<g style="fill:#FFFFFF; fill-opacity:1.0; 
stroke:#FFFFFF; stroke-width:39.3701; stroke-opacity:1; 
stroke-linecap:round; stroke-linejoin:round;">
</g>
<g style="fill:#FFFFFF; fill-opacity:1.0; 
stroke:#FFFFFF; stroke-width:0; stroke-opacity:1; 
stroke-linecap:round; stroke-linejoin:round;">
<circle cx="15167.2" cy="5801.18" r="98.4252" /> 
</g>
<g style="fill:#FFFFFF; fill-opacity:1.0; 
stroke:#FFFFFF; stroke-width:39.3701; stroke-opacity:1; 
stroke-linecap:round; stroke-linejoin:round;">
</g>
<g style="fill:#FFFFFF; fill-opacity:1.0; 
stroke:#FFFFFF; stroke-width:0; stroke-opacity:1; 
stroke-linecap:round; stroke-linejoin:round;">
<circle cx="16167.2" cy="5801.18" r="98.4252" /> 
</g>
<g style="fill:#FFFFFF; fill-opacity:1.0; 
stroke:#FFFFFF; stroke-width:39.3701; stroke-opacity:1; 
stroke-linecap:round; stroke-linejoin:round;">
</g>
<g style="fill:#FFFFFF; fill-opacity:1.0; 
stroke:#FFFFFF; stroke-width:0; stroke-opacity:1; 
stroke-linecap:round; stroke-linejoin:round;">
<circle cx="11167.2" cy="14301.2" r="98.4252" /> 
</g>
<g style="fill:#FFFFFF; fill-opacity:1.0; 
stroke:#FFFFFF; stroke-width:39.3701; stroke-opacity:1; 
stroke-linecap:round; stroke-linejoin:round;">
</g>
<g style="fill:#FFFFFF; fill-opacity:1.0; 
stroke:#FFFFFF; stroke-width:0; stroke-opacity:1; 
stroke-linecap:round; stroke-linejoin:round;">
<circle cx="16167.2" cy="14301.2" r="98.4252" /> 
</g>
<g style="fill:#FFFFFF; fill-opacity:1.0; 
stroke:#FFFFFF; stroke-width:39.3701; stroke-opacity:1; 
stroke-linecap:round; stroke-linejoin:round;">
</g>
<g style="fill:#FFFFFF; fill-opacity:1.0; 
stroke:#FFFFFF; stroke-width:0; stroke-opacity:1; 
stroke-linecap:round; stroke-linejoin:round;">
<circle cx="28962.5" cy="2293.31" r="98.4252" /> 
</g>
<g style="fill:#FFFFFF; fill-opacity:1.0; 
stroke:#FFFFFF; stroke-width:39.3701; stroke-opacity:1; 
stroke-linecap:round; stroke-linejoin:round;">
</g>
<g style="fill:#FFFFFF; fill-opacity:1.0; 
stroke:#FFFFFF; stroke-width:0; stroke-opacity:1; 
stroke-linecap:round; stroke-linejoin:round;">
<circle cx="28962.5" cy="29852.4" r="98.4252" /> 
</g>
<g style="fill:#FFFFFF; fill-opacity:1.0; 
stroke:#FFFFFF; stroke-width:39.3701; stroke-opacity:1; 
stroke-linecap:round; stroke-linejoin:round;">
</g>
<g style="fill:#FFFFFF; fill-opacity:1.0; 
stroke:#FFFFFF; stroke-width:0; stroke-opacity:1; 
stroke-linecap:round; stroke-linejoin:round;">
<circle cx="1403.46" cy="2293.31" r="98.4252" /> 
</g>
<g style="fill:#FFFFFF; fill-opacity:1.0; 
stroke:#FFFFFF; stroke-width:39.3701; stroke-opacity:1; 
stroke-linecap:round; stroke-linejoin:round;">
</g>
<g style="fill:#FFFFFF; fill-opacity:1.0; 
stroke:#FFFFFF; stroke-width:0; stroke-opacity:1; 
stroke-linecap:round; stroke-linejoin:round;">
<circle cx="1403.46" cy="29852.4" r="98.4252" /> 
</g>
<g style="fill:#FFFFFF; fill-opacity:1.0; 
stroke:#FFFFFF; stroke-width:39.3701; stroke-opacity:1; 
stroke-linecap:round; stroke-linejoin:round;">
</g>
<g style="fill:#000000; fill-opacity:1.0; 
stroke:#000000; stroke-width:39.3701; stroke-opacity:1; 
stroke-linecap:round; stroke-linejoin:round;">
</g> 
</svg>
