<?xml version="1.0" standalone="no"?>
 <!DOCTYPE svg PUBLIC "-//W3C//DTD SVG 1.1//EN" 
 "http://www.w3.org/Graphics/SVG/1.1/DTD/svg11.dtd"> 
<svg xmlns="http://www.w3.org/2000/svg" version="1.1" 
    width="9.6901cm" height="9.45388cm" viewBox="0 0 38150 37220 ">
<title>SVG Picture created as BSAT - Control Shield-B.Cu.svg date 2016/05/30 11:04:09 </title>
  <desc>Picture generated by PCBNEW </desc>
<g style="fill:#000000; fill-opacity:1;stroke:#000000; stroke-opacity:1;
stroke-linecap:round; stroke-linejoin:round; "
 transform="translate(0 0) scale(1 1)">
</g>
<g style="fill:#000000; fill-opacity:0.0; 
stroke:#000000; stroke-width:-0.000393701; stroke-opacity:1; 
stroke-linecap:round; stroke-linejoin:round;">
</g>
<g style="fill:#000000; fill-opacity:0.0; 
stroke:#000000; stroke-width:98.4252; stroke-opacity:1; 
stroke-linecap:round; stroke-linejoin:round;">
<path d="M11678 25315
L11809 25709
L11940 25315
" />
<path d="M12278 25709
L12053 25709
" />
<path d="M12165 25709
L12165 25315
L12128 25372
L12090 25409
L12053 25428
" />
<path d="M12446 25672
L12465 25690
L12446 25709
L12428 25690
L12446 25672
L12446 25709
" />
<path d="M12840 25709
L12615 25709
" />
<path d="M12728 25709
L12728 25315
L12690 25372
L12653 25409
L12615 25428
" />
<path d="M9391 24194
L9447 24213
L9466 24231
L9484 24269
L9484 24325
L9466 24363
L9447 24381
L9409 24400
L9259 24400
L9259 24006
L9391 24006
L9428 24025
L9447 24044
L9466 24081
L9466 24119
L9447 24156
L9428 24175
L9391 24194
L9259 24194
" />
<path d="M9728 24006
L9803 24006
L9841 24025
L9878 24063
L9897 24138
L9897 24269
L9878 24344
L9841 24381
L9803 24400
L9728 24400
L9691 24381
L9653 24344
L9634 24269
L9634 24138
L9653 24063
L9691 24025
L9728 24006
" />
<path d="M10047 24381
L10103 24400
L10197 24400
L10234 24381
L10253 24363
L10272 24325
L10272 24288
L10253 24250
L10234 24231
L10197 24213
L10122 24194
L10084 24175
L10066 24156
L10047 24119
L10047 24081
L10066 24044
L10084 24025
L10122 24006
L10215 24006
L10272 24025
" />
<path d="M10665 24363
L10647 24381
L10590 24400
L10553 24400
L10497 24381
L10459 24344
L10440 24306
L10422 24231
L10422 24175
L10440 24100
L10459 24063
L10497 24025
L10553 24006
L10590 24006
L10647 24025
L10665 24044
" />
<path d="M10909 24006
L10984 24006
L11022 24025
L11059 24063
L11078 24138
L11078 24269
L11059 24344
L11022 24381
L10984 24400
L10909 24400
L10872 24381
L10834 24344
L10815 24269
L10815 24138
L10834 24063
L10872 24025
L10909 24006
" />
<path d="M11190 24006
L11322 24400
L11453 24006
" />
<path d="M11584 24194
L11715 24194
" />
<path d="M11772 24400
L11584 24400
L11584 24006
L11772 24006
" />
<path d="M12165 24400
L12034 24213
" />
<path d="M11940 24400
L11940 24006
L12090 24006
L12128 24025
L12147 24044
L12165 24081
L12165 24138
L12147 24175
L12128 24194
L12090 24213
L11940 24213
" />
<path d="M12409 24213
L12409 24400
" />
<path d="M12278 24006
L12409 24213
L12540 24006
" />
<path d="M12653 24381
L12709 24400
L12803 24400
L12840 24381
L12859 24363
L12878 24325
L12878 24288
L12859 24250
L12840 24231
L12803 24213
L12728 24194
L12690 24175
L12671 24156
L12653 24119
L12653 24081
L12671 24044
L12690 24025
L12728 24006
L12821 24006
L12878 24025
" />
<path d="M13028 24288
L13215 24288
" />
<path d="M12990 24400
L13121 24006
L13253 24400
" />
<path d="M13328 24006
L13553 24006
" />
<path d="M13440 24400
L13440 24006
" />
<path d="M13965 24044
L13984 24025
L14021 24006
L14115 24006
L14153 24025
L14171 24044
L14190 24081
L14190 24119
L14171 24175
L13946 24400
L14190 24400
" />
<path d="M14434 24006
L14471 24006
L14509 24025
L14527 24044
L14546 24081
L14565 24156
L14565 24250
L14546 24325
L14527 24363
L14509 24381
L14471 24400
L14434 24400
L14396 24381
L14377 24363
L14359 24325
L14340 24250
L14340 24156
L14359 24081
L14377 24044
L14396 24025
L14434 24006
" />
<path d="M14940 24400
L14715 24400
" />
<path d="M14827 24400
L14827 24006
L14790 24063
L14752 24100
L14715 24119
" />
<path d="M15277 24006
L15202 24006
L15165 24025
L15146 24044
L15109 24100
L15090 24175
L15090 24325
L15109 24363
L15127 24381
L15165 24400
L15240 24400
L15277 24381
L15296 24363
L15315 24325
L15315 24231
L15296 24194
L15277 24175
L15240 24156
L15165 24156
L15127 24175
L15109 24194
L15090 24231
" />
<path d="M9203 25031
L9259 25050
L9353 25050
L9391 25031
L9409 25012
L9428 24975
L9428 24937
L9409 24900
L9391 24881
L9353 24862
L9278 24843
L9241 24825
L9222 24806
L9203 24768
L9203 24731
L9222 24693
L9241 24675
L9278 24656
L9372 24656
L9428 24675
" />
<path d="M9578 24937
L9766 24937
" />
<path d="M9541 25050
L9672 24656
L9803 25050
" />
<path d="M9878 24656
L10103 24656
" />
<path d="M9991 25050
L9991 24656
" />
<path d="M10759 25012
L10740 25031
L10684 25050
L10647 25050
L10590 25031
L10553 24993
L10534 24956
L10515 24881
L10515 24825
L10534 24750
L10553 24712
L10590 24675
L10647 24656
L10684 24656
L10740 24675
L10759 24693
" />
<path d="M11003 24656
L11078 24656
L11115 24675
L11153 24712
L11172 24787
L11172 24918
L11153 24993
L11115 25031
L11078 25050
L11003 25050
L10965 25031
L10928 24993
L10909 24918
L10909 24787
L10928 24712
L10965 24675
L11003 24656
" />
<path d="M11340 25050
L11340 24656
L11565 25050
L11565 24656
" />
<path d="M11697 24656
L11922 24656
" />
<path d="M11809 25050
L11809 24656
" />
<path d="M12278 25050
L12147 24862
" />
<path d="M12053 25050
L12053 24656
L12203 24656
L12240 24675
L12259 24693
L12278 24731
L12278 24787
L12259 24825
L12240 24843
L12203 24862
L12053 24862
" />
<path d="M12521 24656
L12596 24656
L12634 24675
L12671 24712
L12690 24787
L12690 24918
L12671 24993
L12634 25031
L12596 25050
L12521 25050
L12484 25031
L12446 24993
L12428 24918
L12428 24787
L12446 24712
L12484 24675
L12521 24656
" />
<path d="M13046 25050
L12859 25050
L12859 24656
" />
<path d="M13459 25031
L13515 25050
L13609 25050
L13646 25031
L13665 25012
L13684 24975
L13684 24937
L13665 24900
L13646 24881
L13609 24862
L13534 24843
L13496 24825
L13478 24806
L13459 24768
L13459 24731
L13478 24693
L13496 24675
L13534 24656
L13628 24656
L13684 24675
" />
<path d="M13853 25050
L13853 24656
" />
<path d="M13853 24843
L14078 24843
" />
<path d="M14078 25050
L14078 24656
" />
<path d="M14265 25050
L14265 24656
" />
<path d="M14452 24843
L14584 24843
" />
<path d="M14640 25050
L14452 25050
L14452 24656
L14640 24656
" />
<path d="M14996 25050
L14809 25050
L14809 24656
" />
<path d="M15127 25050
L15127 24656
L15221 24656
L15277 24675
L15315 24712
L15334 24750
L15352 24825
L15352 24881
L15334 24956
L15315 24993
L15277 25031
L15221 25050
L15127 25050
" />
</g>
<g style="fill:#000000; fill-opacity:0.0; 
stroke:#000000; stroke-width:78.7402; stroke-opacity:1; 
stroke-linecap:round; stroke-linejoin:round;">
<path d="M10112 17649
L10112 17799
" />
<path d="M10007 17485
L10112 17649
L10217 17485
" />
<path d="M8629 19059
L8839 19374
" />
<path d="M8839 19059
L8629 19374
" />
<path d="M7780 5028
L7885 5343
L7990 5028
" />
<path d="M8275 5313
L8260 5328
L8215 5343
L8185 5343
L8140 5328
L8110 5298
L8095 5268
L8080 5208
L8080 5163
L8095 5103
L8110 5073
L8140 5043
L8185 5028
L8215 5028
L8260 5043
L8275 5058
" />
<path d="M8590 5313
L8575 5328
L8530 5343
L8500 5343
L8455 5328
L8425 5298
L8410 5268
L8395 5208
L8395 5163
L8410 5103
L8425 5073
L8455 5043
L8500 5028
L8530 5028
L8575 5043
L8590 5058
" />
<path d="M7810 5772
L7960 5772
" />
<path d="M7780 5862
L7885 5547
L7990 5862
" />
<path d="M8095 5862
L8095 5547
L8170 5547
L8215 5562
L8245 5592
L8260 5622
L8275 5682
L8275 5727
L8260 5787
L8245 5817
L8215 5847
L8170 5862
L8095 5862
" />
<path d="M8410 5862
L8410 5547
L8485 5547
L8530 5562
L8560 5592
L8575 5622
L8590 5682
L8590 5727
L8575 5787
L8560 5817
L8530 5847
L8485 5862
L8410 5862
" />
<path d="M8905 5862
L8800 5712
" />
<path d="M8725 5862
L8725 5547
L8845 5547
L8875 5562
L8890 5577
L8905 5607
L8905 5652
L8890 5682
L8875 5697
L8845 5712
L8725 5712
" />
<path d="M7990 6082
L7960 6067
L7915 6067
L7870 6082
L7840 6112
L7825 6142
L7810 6202
L7810 6247
L7825 6307
L7840 6337
L7870 6367
L7915 6382
L7945 6382
L7990 6367
L8005 6352
L8005 6247
L7945 6247
" />
<path d="M8140 6382
L8140 6067
L8320 6382
L8320 6067
" />
<path d="M8470 6382
L8470 6067
L8545 6067
L8590 6082
L8620 6112
L8635 6142
L8650 6202
L8650 6247
L8635 6307
L8620 6337
L8590 6367
L8545 6382
L8470 6382
" />
<path d="M7810 6887
L7855 6902
L7930 6902
L7960 6887
L7975 6872
L7990 6842
L7990 6812
L7975 6782
L7960 6767
L7930 6752
L7870 6737
L7840 6722
L7825 6707
L7810 6677
L7810 6647
L7825 6617
L7840 6602
L7870 6587
L7945 6587
L7990 6602
" />
<path d="M8305 6872
L8290 6887
L8245 6902
L8215 6902
L8170 6887
L8140 6857
L8125 6827
L8110 6767
L8110 6722
L8125 6662
L8140 6632
L8170 6602
L8215 6587
L8245 6587
L8290 6602
L8305 6617
" />
<path d="M8590 6902
L8440 6902
L8440 6587
" />
<path d="M7810 7407
L7855 7422
L7930 7422
L7960 7407
L7975 7392
L7990 7362
L7990 7332
L7975 7302
L7960 7287
L7930 7272
L7870 7257
L7840 7242
L7825 7227
L7810 7197
L7810 7167
L7825 7137
L7840 7122
L7870 7107
L7945 7107
L7990 7122
" />
<path d="M8125 7422
L8125 7107
L8200 7107
L8245 7122
L8275 7152
L8290 7182
L8305 7242
L8305 7287
L8290 7347
L8275 7377
L8245 7407
L8200 7422
L8125 7422
" />
<path d="M8425 7332
L8575 7332
" />
<path d="M8395 7422
L8500 7107
L8605 7422
" />
<path d="M6327 4807
L6177 4807
L6177 4492
" />
<path d="M6432 4807
L6432 4492
" />
<path d="M6747 4507
L6717 4492
L6672 4492
L6627 4507
L6597 4537
L6582 4567
L6567 4627
L6567 4672
L6582 4732
L6597 4762
L6627 4792
L6672 4807
L6702 4807
L6747 4792
L6762 4777
L6762 4672
L6702 4672
" />
<path d="M6897 4807
L6897 4492
" />
<path d="M6897 4642
L7077 4642
" />
<path d="M7077 4807
L7077 4492
" />
<path d="M7182 4492
L7362 4492
" />
<path d="M7272 4807
L7272 4492
" />
<path d="M7692 4792
L7737 4807
L7812 4807
L7842 4792
L7857 4777
L7872 4747
L7872 4717
L7857 4687
L7842 4672
L7812 4657
L7752 4642
L7722 4627
L7707 4612
L7692 4582
L7692 4552
L7707 4522
L7722 4507
L7752 4492
L7827 4492
L7872 4507
" />
<path d="M8007 4642
L8112 4642
" />
<path d="M8157 4807
L8007 4807
L8007 4492
L8157 4492
" />
<path d="M8292 4807
L8292 4492
L8472 4807
L8472 4492
" />
<path d="M8607 4792
L8652 4807
L8727 4807
L8757 4792
L8772 4777
L8787 4747
L8787 4717
L8772 4687
L8757 4672
L8727 4657
L8667 4642
L8637 4627
L8622 4612
L8607 4582
L8607 4552
L8622 4522
L8637 4507
L8667 4492
L8742 4492
L8787 4507
" />
<path d="M8982 4492
L9042 4492
L9072 4507
L9102 4537
L9117 4597
L9117 4702
L9102 4762
L9072 4792
L9042 4807
L8982 4807
L8952 4792
L8922 4762
L8907 4702
L8907 4597
L8922 4537
L8952 4507
L8982 4492
" />
<path d="M9432 4807
L9327 4657
" />
<path d="M9252 4807
L9252 4492
L9372 4492
L9402 4507
L9417 4522
L9432 4552
L9432 4597
L9417 4627
L9402 4642
L9372 4657
L9252 4657
" />
<path d="M9552 4792
L9597 4807
L9672 4807
L9702 4792
L9717 4777
L9732 4747
L9732 4717
L9717 4687
L9702 4672
L9672 4657
L9612 4642
L9582 4627
L9567 4612
L9552 4582
L9552 4552
L9567 4522
L9582 4507
L9612 4492
L9687 4492
L9732 4507
" />
</g>
<g style="fill:#000000; fill-opacity:0.0; 
stroke:#000000; stroke-width:98.4252; stroke-opacity:1; 
stroke-linecap:round; stroke-linejoin:round;">
<path d="M14781 7599
L14593 7599
L14593 7205
" />
<path d="M14912 7599
L14912 7205
" />
<path d="M15305 7224
L15268 7205
L15212 7205
L15155 7224
L15118 7261
L15099 7299
L15081 7374
L15081 7430
L15099 7505
L15118 7543
L15155 7580
L15212 7599
L15249 7599
L15305 7580
L15324 7561
L15324 7430
L15249 7430
" />
<path d="M15493 7599
L15493 7205
" />
<path d="M15493 7393
L15718 7393
" />
<path d="M15718 7599
L15718 7205
" />
<path d="M15849 7205
L16074 7205
" />
<path d="M15962 7599
L15962 7205
" />
<path d="M16487 7580
L16543 7599
L16637 7599
L16674 7580
L16693 7561
L16712 7524
L16712 7486
L16693 7449
L16674 7430
L16637 7411
L16562 7393
L16524 7374
L16505 7355
L16487 7318
L16487 7280
L16505 7243
L16524 7224
L16562 7205
L16655 7205
L16712 7224
" />
<path d="M16880 7393
L17012 7393
" />
<path d="M17068 7599
L16880 7599
L16880 7205
L17068 7205
" />
<path d="M17236 7599
L17236 7205
L17461 7599
L17461 7205
" />
<path d="M17630 7580
L17686 7599
L17780 7599
L17818 7580
L17836 7561
L17855 7524
L17855 7486
L17836 7449
L17818 7430
L17780 7411
L17705 7393
L17668 7374
L17649 7355
L17630 7318
L17630 7280
L17649 7243
L17668 7224
L17705 7205
L17799 7205
L17855 7224
" />
<path d="M18099 7205
L18174 7205
L18211 7224
L18249 7261
L18268 7336
L18268 7468
L18249 7543
L18211 7580
L18174 7599
L18099 7599
L18061 7580
L18024 7543
L18005 7468
L18005 7336
L18024 7261
L18061 7224
L18099 7205
" />
<path d="M18661 7599
L18530 7411
" />
<path d="M18436 7599
L18436 7205
L18586 7205
L18624 7224
L18643 7243
L18661 7280
L18661 7336
L18643 7374
L18624 7393
L18586 7411
L18436 7411
" />
<path d="M18811 7580
L18868 7599
L18961 7599
L18999 7580
L19018 7561
L19036 7524
L19036 7486
L19018 7449
L18999 7430
L18961 7411
L18886 7393
L18849 7374
L18830 7355
L18811 7318
L18811 7280
L18830 7243
L18849 7224
L18886 7205
L18980 7205
L19036 7224
" />
<path d="M12147 8368
L12203 8386
L12296 8386
L12334 8368
L12353 8349
L12371 8311
L12371 8274
L12353 8236
L12334 8218
L12296 8199
L12221 8180
L12184 8161
L12165 8143
L12147 8105
L12147 8068
L12165 8030
L12184 8011
L12221 7993
L12315 7993
L12371 8011
" />
<path d="M12540 8386
L12540 7993
" />
<path d="M12728 8386
L12728 7993
L12821 7993
L12878 8011
L12915 8049
L12934 8086
L12953 8161
L12953 8218
L12934 8293
L12915 8330
L12878 8368
L12821 8386
L12728 8386
" />
<path d="M13121 8180
L13253 8180
" />
<path d="M13309 8386
L13121 8386
L13121 7993
L13309 7993
" />
<path d="M13946 8124
L13946 8386
" />
<path d="M13853 7974
L13759 8255
L14003 8255
" />
<path d="M14706 8368
L14762 8386
L14856 8386
L14893 8368
L14912 8349
L14931 8311
L14931 8274
L14912 8236
L14893 8218
L14856 8199
L14781 8180
L14743 8161
L14724 8143
L14706 8105
L14706 8068
L14724 8030
L14743 8011
L14781 7993
L14874 7993
L14931 8011
" />
<path d="M15099 8386
L15099 7993
" />
<path d="M15287 8386
L15287 7993
L15380 7993
L15437 8011
L15474 8049
L15493 8086
L15512 8161
L15512 8218
L15493 8293
L15474 8330
L15437 8368
L15380 8386
L15287 8386
" />
<path d="M15680 8180
L15812 8180
" />
<path d="M15868 8386
L15680 8386
L15680 7993
L15868 7993
" />
<path d="M16299 7993
L16543 7993
L16412 8143
L16468 8143
L16505 8161
L16524 8180
L16543 8218
L16543 8311
L16524 8349
L16505 8368
L16468 8386
L16355 8386
L16318 8368
L16299 8349
" />
<path d="M17265 8368
L17321 8386
L17415 8386
L17452 8368
L17471 8349
L17490 8311
L17490 8274
L17471 8236
L17452 8218
L17415 8199
L17340 8180
L17302 8161
L17283 8143
L17265 8105
L17265 8068
L17283 8030
L17302 8011
L17340 7993
L17433 7993
L17490 8011
" />
<path d="M17658 8386
L17658 7993
" />
<path d="M17846 8386
L17846 7993
L17940 7993
L17996 8011
L18033 8049
L18052 8086
L18071 8161
L18071 8218
L18052 8293
L18033 8330
L17996 8368
L17940 8386
L17846 8386
" />
<path d="M18239 8180
L18371 8180
" />
<path d="M18427 8386
L18239 8386
L18239 7993
L18427 7993
" />
<path d="M18877 8030
L18896 8011
L18933 7993
L19027 7993
L19064 8011
L19083 8030
L19102 8068
L19102 8105
L19083 8161
L18858 8386
L19102 8386
" />
<path d="M19824 8368
L19880 8386
L19974 8386
L20011 8368
L20030 8349
L20049 8311
L20049 8274
L20030 8236
L20011 8218
L19974 8199
L19899 8180
L19861 8161
L19842 8143
L19824 8105
L19824 8068
L19842 8030
L19861 8011
L19899 7993
L19992 7993
L20049 8011
" />
<path d="M20217 8386
L20217 7993
" />
<path d="M20405 8386
L20405 7993
L20499 7993
L20555 8011
L20592 8049
L20611 8086
L20630 8161
L20630 8218
L20611 8293
L20592 8330
L20555 8368
L20499 8386
L20405 8386
" />
<path d="M20799 8180
L20930 8180
" />
<path d="M20986 8386
L20799 8386
L20799 7993
L20986 7993
" />
<path d="M21661 8386
L21436 8386
" />
<path d="M21548 8386
L21548 7993
L21511 8049
L21473 8086
L21436 8105
" />
<path d="M31341 28643
L31322 28699
L31322 28793
L31341 28831
L31360 28849
L31397 28868
L31435 28868
L31472 28849
L31491 28831
L31510 28793
L31528 28718
L31547 28681
L31566 28662
L31603 28643
L31641 28643
L31678 28662
L31697 28681
L31716 28718
L31716 28812
L31697 28868
" />
<path d="M31435 29018
L31435 29206
" />
<path d="M31322 28981
L31716 29112
L31322 29243
" />
<path d="M31716 29318
L31716 29543
" />
<path d="M31322 29431
L31716 29431
" />
<path d="M30672 28165
L31066 28165
L31066 28315
L31047 28353
L31029 28371
L30991 28390
L30935 28390
L30897 28371
L30879 28353
L30860 28315
L30860 28165
" />
<path d="M31066 28634
L31066 28709
L31047 28746
L31010 28784
L30935 28802
L30804 28802
L30729 28784
L30691 28746
L30672 28709
L30672 28634
L30691 28596
L30729 28559
L30804 28540
L30935 28540
L31010 28559
L31047 28596
L31066 28634
" />
<path d="M31066 28934
L30672 29027
L30954 29102
L30672 29177
L31066 29271
" />
<path d="M30879 29421
L30879 29552
" />
<path d="M30672 29609
L30672 29421
L31066 29421
L31066 29609
" />
<path d="M30672 30002
L30860 29871
" />
<path d="M30672 29777
L31066 29777
L31066 29927
L31047 29965
L31029 29984
L30991 30002
L30935 30002
L30897 29984
L30879 29965
L30860 29927
L30860 29777
" />
</g>
<g style="fill:#000000; fill-opacity:0.0; 
stroke:#000000; stroke-width:59.0551; stroke-opacity:1; 
stroke-linecap:round; stroke-linejoin:round;">
<path d="M22514 6240
L22514 4862
" />
<path d="M12081 6830
L21923 6830
" />
<path d="M11490 4862
L11490 6240
" />
<path d="M21923.9 6830.71 A590.551 590.551 0.0 0 0 22514.5 6240.16 " />
<path d="M11490.8 6240.16 A590.551 590.551 0.0 0 0 12081.4 6830.71 " />
<path d="M10703 4074
L2829 4074
" />
<path d="M33144 4074
L23301 4074
" />
<path d="M11490 4862
L10703 4074
" />
<path d="M23301 4074
L22514 4862
" />
<path d="M33144 18641
L33144 34389
" />
<path d="M2829 34389
L2829 18641
" />
<path d="M16608 34389
L2829 34389
" />
<path d="M33144 18641
L33144 4074
" />
<path d="M16608 34389
L33144 34389
" />
<path d="M2829 4074
L2829 18641
" />
</g>
<g style="fill:#000000; fill-opacity:0.0; 
stroke:#000000; stroke-width:826.772; stroke-opacity:1; 
stroke-linecap:round; stroke-linejoin:round;">
<path d="M8931 27322
L8931 28070
" />
<path d="M7931 27322
L7931 28070
" />
<path d="M6931 27322
L6931 28070
" />
<path d="M5931 27322
L5931 28070
" />
<path d="M4931 27322
L4931 28070
" />
</g>
<g style="fill:#000000; fill-opacity:1.0; 
stroke:#000000; stroke-width:0; stroke-opacity:1; 
stroke-linecap:round; stroke-linejoin:round;">
<circle cx="22223.9" cy="7726.77" r="492.126" /> 
</g>
<g style="fill:#000000; fill-opacity:1.0; 
stroke:#000000; stroke-width:39.3701; stroke-opacity:1; 
stroke-linecap:round; stroke-linejoin:round;">
</g>
<g style="fill:#000000; fill-opacity:1.0; 
stroke:#000000; stroke-width:826.772; stroke-opacity:1; 
stroke-linecap:round; stroke-linejoin:round;">
</g>
<g style="fill:#000000; fill-opacity:0.0; 
stroke:#000000; stroke-width:826.772; stroke-opacity:1; 
stroke-linecap:round; stroke-linejoin:round;">
<path d="M25683 14311
L26038 14311
" />
<path d="M25683 13311
L26038 13311
" />
<path d="M25683 12311
L26038 12311
" />
<path d="M25683 11311
L26038 11311
" />
<path d="M25683 10311
L26038 10311
" />
<path d="M25683 9311
L26038 9311
" />
<path d="M25683 8311
L26038 8311
" />
<path d="M25683 7311
L26038 7311
" />
<path d="M28683 7311
L29038 7311
" />
<path d="M28683 8311
L29038 8311
" />
<path d="M28683 9311
L29038 9311
" />
<path d="M28683 10311
L29038 10311
" />
<path d="M28683 11311
L29038 11311
" />
<path d="M28683 12311
L29038 12311
" />
<path d="M28683 13311
L29038 13311
" />
<path d="M28683 14311
L29038 14311
" />
<path d="M8557 8996
L9305 8996
" />
<path d="M8557 9996
L9305 9996
" />
<path d="M8557 10996
L9305 10996
" />
<path d="M8557 11996
L9305 11996
" />
<path d="M8557 12996
L9305 12996
" />
<path d="M8557 13996
L9305 13996
" />
<path d="M8557 14996
L9305 14996
" />
<path d="M8557 15996
L9305 15996
" />
</g>
<g style="fill:#000000; fill-opacity:1.0; 
stroke:#000000; stroke-width:0; stroke-opacity:1; 
stroke-linecap:round; stroke-linejoin:round;">
<circle cx="21923.9" cy="6240.16" r="590.551" /> 
</g>
<g style="fill:#000000; fill-opacity:1.0; 
stroke:#000000; stroke-width:39.3701; stroke-opacity:1; 
stroke-linecap:round; stroke-linejoin:round;">
</g>
<g style="fill:#000000; fill-opacity:1.0; 
stroke:#000000; stroke-width:0; stroke-opacity:1; 
stroke-linecap:round; stroke-linejoin:round;">
<circle cx="31766.4" cy="33011.8" r="885.827" /> 
</g>
<g style="fill:#000000; fill-opacity:1.0; 
stroke:#000000; stroke-width:39.3701; stroke-opacity:1; 
stroke-linecap:round; stroke-linejoin:round;">
</g>
<g style="fill:#000000; fill-opacity:1.0; 
stroke:#000000; stroke-width:0; stroke-opacity:1; 
stroke-linecap:round; stroke-linejoin:round;">
<circle cx="31766.4" cy="5452.76" r="885.827" /> 
</g>
<g style="fill:#000000; fill-opacity:1.0; 
stroke:#000000; stroke-width:39.3701; stroke-opacity:1; 
stroke-linecap:round; stroke-linejoin:round;">
</g>
<g style="fill:#000000; fill-opacity:1.0; 
stroke:#000000; stroke-width:0; stroke-opacity:1; 
stroke-linecap:round; stroke-linejoin:round;">
<circle cx="4207.37" cy="5452.76" r="885.827" /> 
</g>
<g style="fill:#000000; fill-opacity:1.0; 
stroke:#000000; stroke-width:39.3701; stroke-opacity:1; 
stroke-linecap:round; stroke-linejoin:round;">
</g>
<g style="fill:#000000; fill-opacity:1.0; 
stroke:#000000; stroke-width:0; stroke-opacity:1; 
stroke-linecap:round; stroke-linejoin:round;">
<circle cx="4207.37" cy="33011.8" r="885.827" /> 
</g>
<g style="fill:#000000; fill-opacity:1.0; 
stroke:#000000; stroke-width:39.3701; stroke-opacity:1; 
stroke-linecap:round; stroke-linejoin:round;">
</g>
<g style="fill:#000000; fill-opacity:1.0; 
stroke:#000000; stroke-width:0; stroke-opacity:1; 
stroke-linecap:round; stroke-linejoin:round;">
<polyline style="fill-rule:evenodd;"
points="28715,26220
27730,26220
27730,27204
28715,27204
28715,26220
" /> 
<polyline style="fill-rule:evenodd;"
points="32002,26948
32002,26082
31136,26082
31136,26948
32002,26948
" /> 
</g>
<g style="fill:#000000; fill-opacity:1.0; 
stroke:#000000; stroke-width:905.512; stroke-opacity:1; 
stroke-linecap:round; stroke-linejoin:round;">
</g>
<g style="fill:#000000; fill-opacity:0.0; 
stroke:#000000; stroke-width:905.512; stroke-opacity:1; 
stroke-linecap:round; stroke-linejoin:round;">
<path d="M31569 27515
L31569 27515
" />
</g>
<g style="fill:#000000; fill-opacity:0.0; 
stroke:#000000; stroke-width:885.827; stroke-opacity:1; 
stroke-linecap:round; stroke-linejoin:round;">
<path d="M31175 23612
L31175 24301
" />
<path d="M30175 23612
L30175 24301
" />
<path d="M29175 23612
L29175 24301
" />
<path d="M28175 23612
L28175 24301
" />
<path d="M19217 31830
L19906 31830
" />
<path d="M19217 30830
L19906 30830
" />
<path d="M19217 29830
L19906 29830
" />
<path d="M19217 28830
L19906 28830
" />
<path d="M19217 27830
L19906 27830
" />
<path d="M19217 26830
L19906 26830
" />
<path d="M19217 25830
L19906 25830
" />
<path d="M19217 24830
L19906 24830
" />
<path d="M19217 23830
L19906 23830
" />
<path d="M19217 22830
L19906 22830
" />
<path d="M19217 21830
L19906 21830
" />
<path d="M19217 20830
L19906 20830
" />
<path d="M19217 19830
L19906 19830
" />
<path d="M19217 18830
L19906 18830
" />
<path d="M19217 17830
L19906 17830
" />
<path d="M25217 17830
L25906 17830
" />
<path d="M25217 18830
L25906 18830
" />
<path d="M25217 19830
L25906 19830
" />
<path d="M25217 20830
L25906 20830
" />
<path d="M25217 21830
L25906 21830
" />
<path d="M25217 22830
L25906 22830
" />
<path d="M25217 23830
L25906 23830
" />
<path d="M25217 24830
L25906 24830
" />
<path d="M25217 25830
L25906 25830
" />
<path d="M25217 26830
L25906 26830
" />
<path d="M25217 27830
L25906 27830
" />
<path d="M25217 28830
L25906 28830
" />
<path d="M25217 29830
L25906 29830
" />
<path d="M25217 30830
L25906 30830
" />
<path d="M25217 31830
L25906 31830
" />
</g>
<g style="fill:#000000; fill-opacity:1.0; 
stroke:#000000; stroke-width:0; stroke-opacity:1; 
stroke-linecap:round; stroke-linejoin:round;">
<circle cx="12081.4" cy="6240.16" r="590.551" /> 
</g>
<g style="fill:#000000; fill-opacity:1.0; 
stroke:#000000; stroke-width:39.3701; stroke-opacity:1; 
stroke-linecap:round; stroke-linejoin:round;">
</g>
<g style="fill:#000000; fill-opacity:1.0; 
stroke:#000000; stroke-width:826.772; stroke-opacity:1; 
stroke-linecap:round; stroke-linejoin:round;">
</g>
<g style="fill:#000000; fill-opacity:0.0; 
stroke:#000000; stroke-width:826.772; stroke-opacity:1; 
stroke-linecap:round; stroke-linejoin:round;">
<path d="M21116 13129
L20368 13129
" />
<path d="M21116 12129
L20368 12129
" />
<path d="M21116 11129
L20368 11129
" />
<path d="M21116 10129
L20368 10129
" />
<path d="M21116 9129
L20368 9129
" />
<path d="M18557 13129
L17809 13129
" />
<path d="M18557 12129
L17809 12129
" />
<path d="M18557 11129
L17809 11129
" />
<path d="M18557 10129
L17809 10129
" />
<path d="M18557 9129
L17809 9129
" />
<path d="M15998 13129
L15250 13129
" />
<path d="M15998 12129
L15250 12129
" />
<path d="M15998 11129
L15250 11129
" />
<path d="M15998 10129
L15250 10129
" />
<path d="M15998 9129
L15250 9129
" />
<path d="M13439 13129
L12691 13129
" />
<path d="M13439 12129
L12691 12129
" />
<path d="M13439 11129
L12691 11129
" />
<path d="M13439 10129
L12691 10129
" />
<path d="M13439 9129
L12691 9129
" />
</g>
<g style="fill:#000000; fill-opacity:1.0; 
stroke:#000000; stroke-width:0; stroke-opacity:1; 
stroke-linecap:round; stroke-linejoin:round;">
<circle cx="24523.9" cy="7726.77" r="492.126" /> 
</g>
<g style="fill:#000000; fill-opacity:1.0; 
stroke:#000000; stroke-width:39.3701; stroke-opacity:1; 
stroke-linecap:round; stroke-linejoin:round;">
</g>
<g style="fill:#000000; fill-opacity:1.0; 
stroke:#000000; stroke-width:885.827; stroke-opacity:1; 
stroke-linecap:round; stroke-linejoin:round;">
</g>
<g style="fill:#000000; fill-opacity:0.0; 
stroke:#000000; stroke-width:885.827; stroke-opacity:1; 
stroke-linecap:round; stroke-linejoin:round;">
<path d="M11638 30846
L10949 30846
" />
<path d="M11638 29846
L10949 29846
" />
<path d="M11638 28846
L10949 28846
" />
<path d="M11638 27846
L10949 27846
" />
</g>
<g style="fill:#000000; fill-opacity:1.0; 
stroke:#000000; stroke-width:0; stroke-opacity:1; 
stroke-linecap:round; stroke-linejoin:round;">
<circle cx="24523.9" cy="7726.77" r="118.11" /> 
</g>
<g style="fill:#000000; fill-opacity:1.0; 
stroke:#000000; stroke-width:39.3701; stroke-opacity:1; 
stroke-linecap:round; stroke-linejoin:round;">
</g>
<g style="fill:#000000; fill-opacity:1.0; 
stroke:#000000; stroke-width:0; stroke-opacity:1; 
stroke-linecap:round; stroke-linejoin:round;">
<circle cx="22223.9" cy="7726.77" r="118.11" /> 
</g>
<g style="fill:#000000; fill-opacity:1.0; 
stroke:#000000; stroke-width:39.3701; stroke-opacity:1; 
stroke-linecap:round; stroke-linejoin:round;">
</g>
<g style="fill:#000000; fill-opacity:1.0; 
stroke:#000000; stroke-width:98.4252; stroke-opacity:1; 
stroke-linecap:round; stroke-linejoin:round;">
</g>
<g style="fill:#000000; fill-opacity:0.0; 
stroke:#000000; stroke-width:98.4252; stroke-opacity:1; 
stroke-linecap:round; stroke-linejoin:round;">
<path d="M8931 19232
L9128 19429
" />
<path d="M9128 19035
L8931 19232
" />
<path d="M10112 19232
L10112 18051
" />
<path d="M8931 19232
L10112 19232
" />
<path d="M10112 18051
L10309 18248
" />
<path d="M10112 18051
L9916 18248
" />
<path d="M7356 7421
L7160 7224
" />
<path d="M7356 5059
L7356 7421
" />
<path d="M7356 7421
L7553 7224
" />
<path d="M28223 28681
L28616 29074
" />
<path d="M28223 28681
L27829 29074
" />
<path d="M28223 27893
L28223 28681
" />
<path d="M28223 28681
L28223 29468
" />
</g>
<g style="fill:#000000; fill-opacity:0.0; 
stroke:#000000; stroke-width:393.701; stroke-opacity:1; 
stroke-linecap:round; stroke-linejoin:round;">
<path d="M19561 17830
L21112 17830
" />
<path d="M30782 26515
L31569 26515
" />
<path d="M29994 27303
L30782 26515
" />
<path d="M29994 31240
L29994 27303
" />
<path d="M28223 33011
L29994 31240
" />
<path d="M24482 33011
L28223 33011
" />
<path d="M22711 31240
L24482 33011
" />
<path d="M22711 19429
L22711 31240
" />
<path d="M21112 17830
L22711 19429
" />
</g>
<g style="fill:#000000; fill-opacity:0.0; 
stroke:#000000; stroke-width:295.276; stroke-opacity:1; 
stroke-linecap:round; stroke-linejoin:round;">
<path d="M25860 7311
L25860 8311
" />
<path d="M25860 8311
L25860 9311
" />
<path d="M18183 10129
L15624 10129
" />
<path d="M15624 10129
L13065 10129
" />
<path d="M13065 10129
L12931 9996
" />
<path d="M12931 9996
L7931 9996
" />
<path d="M7931 9996
L5931 11996
" />
<path d="M5931 11996
L5931 27696
" />
<path d="M20742 10129
L18183 10129
" />
<path d="M13065 10129
L13065 11129
" />
<path d="M15624 10129
L15624 11129
" />
<path d="M18183 10129
L18183 11129
" />
<path d="M20742 10129
L20742 11129
" />
<path d="M25561 20830
L29230 20830
" />
<path d="M30175 21775
L30175 23956
" />
<path d="M29230 20830
L30175 21775
" />
<path d="M30175 23956
L30175 25318
" />
<path d="M30191 25334
L32553 25334
" />
<path d="M30175 25318
L30191 25334
" />
<path d="M20742 10129
L21720 10129
" />
<path d="M24939 7311
L25860 7311
" />
<path d="M24523 7726
L24939 7311
" />
<path d="M22223 9626
L22223 7726
" />
<path d="M21720 10129
L22223 9626
" />
<path d="M32553 27515
L31569 27515
" />
<path d="M19561 18830
L20734 18830
" />
<path d="M32553 29665
L32553 27515
" />
<path d="M28419 33799
L32553 29665
" />
<path d="M24286 33799
L28419 33799
" />
<path d="M21923 31437
L24286 33799
" />
<path d="M21923 20019
L21923 31437
" />
<path d="M20734 18830
L21923 20019
" />
<path d="M22223 7726
L24286 5846
" />
<path d="M24286 5846
L29797 5846
" />
<path d="M29797 5846
L32553 8602
" />
<path d="M32553 8602
L32553 25334
" />
<path d="M32553 25334
L32553 27500
" />
<path d="M32553 27500
L32538 27515
" />
<path d="M32538 27515
L32553 27515
" />
</g>
<g style="fill:#000000; fill-opacity:0.0; 
stroke:#000000; stroke-width:196.85; stroke-opacity:1; 
stroke-linecap:round; stroke-linejoin:round;">
<path d="M7931 27696
L7931 28468
" />
<path d="M7931 28468
L8309 28846
" />
<path d="M8309 28846
L11293 28846
" />
<path d="M19561 24830
L18490 24830
" />
<path d="M15656 28846
L11293 28846
" />
<path d="M17790 26712
L15656 28846
" />
<path d="M17790 25531
L17790 26712
" />
<path d="M18490 24830
L17790 25531
" />
<path d="M25860 12311
L26419 12311
" />
<path d="M26419 12311
L26845 12736
" />
<path d="M26845 12736
L26845 14507
" />
<path d="M26845 14507
L26254 15098
" />
<path d="M26254 15098
L12805 15098
" />
<path d="M12805 15098
L11884 14177
" />
<path d="M11884 14177
L11884 12736
" />
<path d="M11884 12736
L11144 11996
" />
<path d="M11144 11996
L8931 11996
" />
<path d="M8931 11996
L7900 11996
" />
<path d="M7900 11996
L7356 12539
" />
<path d="M7356 12539
L7356 25925
" />
<path d="M7356 25925
L7931 26500
" />
<path d="M7931 26500
L7931 27696
" />
<path d="M19561 24830
L18860 24830
" />
<path d="M11293 27846
L16065 27846
" />
<path d="M17396 24098
L17664 23830
" />
<path d="M17396 26515
L17396 24098
" />
<path d="M16065 27846
L17396 26515
" />
<path d="M20742 12129
L18183 12129
" />
<path d="M18183 12129
L15624 12129
" />
<path d="M15624 12129
L13065 12129
" />
<path d="M13065 12129
L13049 12145
" />
<path d="M13049 12145
L11884 12145
" />
<path d="M11884 12145
L10734 10996
" />
<path d="M10734 10996
L8931 10996
" />
<path d="M8931 10996
L7916 10996
" />
<path d="M6931 26350
L6931 27696
" />
<path d="M6963 26318
L6931 26350
" />
<path d="M6963 11948
L6963 26318
" />
<path d="M7916 10996
L6963 11948
" />
<path d="M19561 23830
L17664 23830
" />
<path d="M23120 12129
L20742 12145
" />
<path d="M23301 11948
L23120 12129
" />
<path d="M23301 7618
L23301 11948
" />
<path d="M24482 6437
L23301 7618
" />
<path d="M26845 6437
L24482 6437
" />
<path d="M27238 6830
L26845 6437
" />
<path d="M27238 14704
L27238 6830
" />
<path d="M26451 15492
L27238 14704
" />
<path d="M17986 15492
L26451 15492
" />
<path d="M16215 17263
L17986 15492
" />
<path d="M16215 22381
L16215 17263
" />
<path d="M17664 23830
L16215 22381
" />
<path d="M18845 23759
L18971 23633
" />
</g>
<g style="fill:#000000; fill-opacity:0.0; 
stroke:#000000; stroke-width:393.701; stroke-opacity:1; 
stroke-linecap:round; stroke-linejoin:round;">
<path d="M19561 30830
L11309 30830
" />
<path d="M11309 30830
L11293 30846
" />
<path d="M11293 30846
L6766 30846
" />
<path d="M6766 30846
L4931 29011
" />
<path d="M4931 29011
L4931 27696
" />
<path d="M20742 9129
L18183 9129
" />
<path d="M18183 9129
L15624 9129
" />
<path d="M15624 9129
L13065 9129
" />
<path d="M13065 9129
L12931 8996
" />
<path d="M12931 8996
L8931 8996
" />
<path d="M4931 27696
L4931 10633
" />
<path d="M4931 10633
L6569 8996
" />
<path d="M6569 8996
L8931 8996
" />
<path d="M28860 14311
L28860 15248
" />
<path d="M28860 15248
L27238 16870
" />
<path d="M19561 20830
L18601 20830
" />
<path d="M18601 20830
L17593 19822
" />
<path d="M17593 19822
L17593 17854
" />
<path d="M17593 17854
L18577 16870
" />
<path d="M18577 16870
L27238 16870
" />
<path d="M27238 16870
L31175 20807
" />
<path d="M31175 20807
L31175 23956
" />
</g>
<g style="fill:#000000; fill-opacity:0.0; 
stroke:#000000; stroke-width:295.276; stroke-opacity:1; 
stroke-linecap:round; stroke-linejoin:round;">
<path d="M25561 27830
L26514 27830
" />
<path d="M29175 22940
L29175 23956
" />
<path d="M28616 22381
L29175 22940
" />
<path d="M27632 22381
L28616 22381
" />
<path d="M27042 22972
L27632 22381
" />
<path d="M27042 27303
L27042 22972
" />
<path d="M26514 27830
L27042 27303
" />
<path d="M25561 27830
L26317 27830
" />
</g>
<g style="fill:#000000; fill-opacity:0.0; 
stroke:#000000; stroke-width:196.85; stroke-opacity:1; 
stroke-linecap:round; stroke-linejoin:round;">
<path d="M19561 21830
L18026 21830
" />
<path d="M18026 21830
L17002 20807
" />
<path d="M17002 20807
L17002 17657
" />
<path d="M17002 17657
L18380 16279
" />
<path d="M18380 16279
L26845 16279
" />
<path d="M26845 16279
L28026 15098
" />
<path d="M28026 15098
L28026 8602
" />
<path d="M28026 8602
L28317 8311
" />
<path d="M28317 8311
L28860 8311
" />
<path d="M19522 21791
L19561 21830
" />
<path d="M28860 7311
L27939 7311
" />
<path d="M27939 7311
L27632 7618
" />
<path d="M27632 7618
L27632 14901
" />
<path d="M27632 14901
L26648 15885
" />
<path d="M26648 15885
L18183 15885
" />
<path d="M18183 15885
L16608 17460
" />
<path d="M16608 17460
L16608 21594
" />
<path d="M16608 21594
L17845 22830
" />
<path d="M17845 22830
L19561 22830
" />
<path d="M28908 7129
L28813 7224
" />
<path d="M28813 7224
L28908 7129
" />
</g>
<g style="fill:#000000; fill-opacity:0.0; 
stroke:#000000; stroke-width:295.276; stroke-opacity:1; 
stroke-linecap:round; stroke-linejoin:round;">
<path d="M28223 26712
L28223 24003
" />
<path d="M28223 24003
L28175 23956
" />
</g>
<g style="fill:#000000; fill-opacity:0.0; 
stroke:#000000; stroke-width:196.85; stroke-opacity:1; 
stroke-linecap:round; stroke-linejoin:round;">
<path d="M25860 10311
L24939 10311
" />
<path d="M23892 13129
L20742 13129
" />
<path d="M24286 12736
L23892 13129
" />
<path d="M24286 10964
L24286 12736
" />
<path d="M24939 10311
L24286 10964
" />
<path d="M25860 11311
L24923 11311
" />
<path d="M18971 13917
L18183 13129
" />
<path d="M23695 13917
L18971 13917
" />
<path d="M24679 12933
L23695 13917
" />
<path d="M24679 11555
L24679 12933
" />
<path d="M24923 11311
L24679 11555
" />
<path d="M25860 13311
L24892 13311
" />
<path d="M16805 14311
L15624 13129
" />
<path d="M23892 14311
L16805 14311
" />
<path d="M24892 13311
L23892 14311
" />
<path d="M25860 14311
L24482 14311
" />
<path d="M14640 14704
L13065 13129
" />
<path d="M24089 14704
L14640 14704
" />
<path d="M24482 14311
L24089 14704
" />
</g>
<g style="fill:#000000; fill-opacity:1.0; 
stroke:#000000; stroke-width:100; stroke-opacity:1; 
stroke-linecap:round; stroke-linejoin:round;">
<polyline style="fill-rule:evenodd;"
points="7400,28560
7185,28704
6931,28754
6677,28704
6462,28560
6445,28534
6418,28534
6400,28560
6185,28704
5931,28754
5677,28704
5462,28560
5445,28534
5418,28534
5400,28560
5378,28575
5378,28826
6951,30399
10410,30399
10439,30356
10454,30346
10439,30336
10289,30111
10236,29846
10289,29581
10439,29356
10454,29346
10439,29336
10344,29194
8309,29194
8309,29194
8198,29172
8176,29168
8063,29092
7685,28714
7685,28714
7678,28704
7677,28704
7462,28560
7431,28514
7400,28560
" /> 
<polyline style="fill-rule:evenodd;"
points="18138,25675
18138,26712
18138,26712
18128,26762
18111,26845
18036,26958
15902,29092
15902,29092
15835,29137
15789,29168
15656,29194
15656,29194
12243,29194
12148,29336
12133,29346
12148,29356
12298,29581
12351,29846
12298,30111
12148,30336
12133,30346
12148,30356
12167,30383
18678,30383
18706,30340
18721,30330
18706,30320
18556,30095
18503,29830
18556,29565
18706,29340
18721,29330
18706,29320
18556,29095
18503,28830
18556,28565
18706,28340
18721,28330
18706,28320
18556,28095
18503,27830
18556,27565
18706,27340
18721,27330
18706,27320
18556,27095
18503,26830
18556,26565
18706,26340
18721,26330
18706,26320
18556,26095
18503,25830
18556,25565
18706,25340
18721,25330
18706,25320
18621,25192
18138,25675
" /> 
<polyline style="fill-rule:evenodd;"
points="12148,28336
12133,28346
12148,28356
12243,28498
15511,28498
15815,28194
12243,28194
12148,28336
" /> 
<polyline style="fill-rule:evenodd;"
points="9795,12465
9748,12496
9795,12526
9939,12742
9989,12996
9939,13249
9795,13465
9748,13496
9795,13526
9939,13742
9989,13996
9939,14249
9795,14465
9748,14496
9795,14526
9939,14742
9989,14996
9939,15249
9795,15465
9748,15496
9795,15526
9939,15742
9989,15996
9939,16249
9795,16465
9579,16608
9326,16659
8537,16659
8283,16608
8068,16465
7924,16249
7874,15996
7924,15742
8068,15526
8114,15496
8068,15465
7924,15249
7874,14996
7924,14742
8068,14526
8114,14496
8068,14465
7924,14249
7874,13996
7924,13742
8068,13526
8114,13496
8068,13465
7924,13249
7874,12996
7924,12742
8068,12526
8114,12496
8068,12465
8010,12378
7705,12683
7705,25780
8178,26253
8253,26366
8253,26366
8280,26500
8280,26500
8280,26752
8400,26833
8431,26879
8462,26833
8677,26689
8931,26639
9185,26689
9400,26833
9544,27048
9595,27302
9595,28091
9544,28345
9442,28498
10344,28498
10439,28356
10454,28346
10439,28336
10289,28111
10236,27846
10289,27581
10439,27356
10664,27206
10929,27153
11658,27153
11923,27206
12148,27356
12243,27498
15921,27498
17047,26371
17047,24098
17047,24098
17074,23965
17122,23893
17149,23852
17149,23852
17171,23830
16889,23549
15727,23549
15727,25446
13214,25446
13214,26106
11341,26106
11341,25446
8829,25446
8829,23549
15727,23549
16889,23549
15968,22628
15968,22628
15893,22515
15884,22470
15866,22381
15866,22381
15866,18248
10608,18248
10586,18362
10521,18459
10424,18524
10412,18526
10412,19232
10389,19346
10324,19443
10227,19508
10112,19531
9407,19531
9405,19543
9340,19640
9243,19705
9174,19719
9174,19742
8295,19742
8295,18643
9174,18643
9174,18745
9243,18758
9340,18823
9405,18920
9407,18933
9813,18933
9813,18526
9801,18524
9704,18459
9639,18362
9616,18248
9639,18133
9688,18060
9688,17068
10537,17068
10537,18060
10586,18133
10608,18248
15866,18248
15866,17263
15866,17263
15888,17152
15893,17130
15968,17017
15968,17017
17539,15446
12805,15446
12805,15446
12693,15424
12671,15420
12558,15344
12558,15344
11638,14424
11638,14424
11562,14311
11536,14177
11536,12880
11000,12344
9875,12344
9795,12465
" /> 
<polyline style="fill-rule:evenodd;"
points="7297,26390
7285,26452
7280,26459
7280,26752
7400,26833
7431,26879
7462,26833
7583,26752
7583,26644
7302,26363
7297,26390
" /> 
<polyline style="fill-rule:evenodd;"
points="17744,24242
17744,25084
18244,24584
18272,24565
18357,24508
18379,24504
18490,24482
18490,24482
18612,24482
18706,24340
18721,24330
18706,24320
18612,24179
17808,24179
17744,24242
" /> 
<polyline style="fill-rule:evenodd;"
points="16563,22237
17808,23482
18612,23482
18706,23340
18721,23330
18706,23320
18612,23179
17845,23179
17845,23179
17733,23157
17711,23152
17598,23077
16563,22041
16563,22237
" /> 
<polyline style="fill-rule:evenodd;"
points="16957,21450
17989,22482
18612,22482
18706,22340
18721,22330
18706,22320
18612,22179
18026,22179
18026,22179
17915,22157
17892,22152
17779,22077
16957,21254
16957,21450
" /> 
<polyline style="fill-rule:evenodd;"
points="17351,20662
18170,21482
18612,21482
18706,21340
18721,21330
18706,21320
18678,21277
18601,21277
18430,21243
18285,21146
17351,20212
17351,20662
" /> 
<polyline style="fill-rule:evenodd;"
points="18040,18039
18040,19637
18674,20272
18556,20095
18503,19830
18556,19565
18706,19340
18721,19330
18706,19320
18556,19095
18503,18830
18556,18565
18706,18340
18721,18330
18706,18320
18556,18095
18503,17830
18556,17565
18642,17436
18040,18039
" /> 
<polyline style="fill-rule:evenodd;"
points="24536,14750
25178,14750
25117,14659
24627,14659
24536,14750
" /> 
<polyline style="fill-rule:evenodd;"
points="12232,14033
12949,14750
14192,14750
13236,13793
12671,13793
12417,13742
12232,13619
12232,14033
" /> 
<polyline style="fill-rule:evenodd;"
points="13929,12599
13882,12629
13929,12660
14072,12876
14123,13129
14072,13383
13968,13540
14784,14356
16358,14356
15795,13793
15230,13793
14976,13742
14761,13599
14617,13383
14566,13129
14617,12876
14761,12660
14807,12629
14761,12599
14680,12478
14009,12478
13929,12599
" /> 
<polyline style="fill-rule:evenodd;"
points="24733,13962
25117,13962
25198,13841
25244,13811
25198,13780
25117,13659
25036,13659
24733,13962
" /> 
<polyline style="fill-rule:evenodd;"
points="16488,12599
16441,12629
16488,12660
16631,12876
16682,13129
16631,13383
16527,13540
16950,13962
18523,13962
18354,13793
17789,13793
17535,13742
17320,13599
17176,13383
17126,13129
17176,12876
17320,12660
17366,12629
17320,12599
17239,12478
16568,12478
16488,12599
" /> 
<polyline style="fill-rule:evenodd;"
points="19047,12599
19000,12629
19047,12660
19190,12876
19241,13129
19190,13383
19086,13540
19115,13568
19859,13568
19735,13383
19685,13129
19735,12876
19879,12660
19925,12629
19879,12599
19798,12478
19127,12478
19047,12599
" /> 
<polyline style="fill-rule:evenodd;"
points="21626,13568
23551,13568
23641,13478
21686,13478
21626,13568
" /> 
<polyline style="fill-rule:evenodd;"
points="25028,12933
25028,12933
25022,12962
25117,12962
25198,12841
25244,12811
25198,12780
25054,12564
25028,12433
25028,12933
" /> 
<polyline style="fill-rule:evenodd;"
points="23745,11555
23741,11574
23730,11590
23650,11671
23650,11948
23650,11948
23637,12014
23623,12082
23579,12148
23548,12195
23367,12376
23311,12413
23256,12450
23255,12451
23254,12451
23188,12464
23123,12478
21680,12487
21606,12599
21559,12629
21606,12660
21686,12781
23748,12781
23937,12591
23937,10964
23937,10964
23964,10831
23989,10793
24039,10718
24039,10718
24530,10227
23745,10227
23745,11555
" /> 
<polyline style="fill-rule:evenodd;"
points="12206,12602
12210,12625
12216,12651
12248,12629
12205,12600
12206,12602
" /> 
<polyline style="fill-rule:evenodd;"
points="25028,11699
25028,12188
25054,12057
25198,11841
25244,11811
25198,11780
25117,11659
25068,11659
25028,11699
" /> 
<polyline style="fill-rule:evenodd;"
points="7657,11747
7705,11714
7766,11674
7789,11669
7900,11647
7900,11647
7987,11647
8068,11526
8114,11496
8068,11465
8016,11388
7657,11747
" /> 
<polyline style="fill-rule:evenodd;"
points="9795,11465
9748,11496
9795,11526
9875,11647
10893,11647
10590,11344
9875,11344
9795,11465
" /> 
<polyline style="fill-rule:evenodd;"
points="24681,11062
24704,11046
24790,10989
24812,10984
24923,10962
24923,10962
25117,10962
25198,10841
25244,10811
25198,10780
25117,10659
25083,10659
24681,11062
" /> 
<polyline style="fill-rule:evenodd;"
points="22793,4977
22793,6240
22788,6267
22788,6294
22743,6520
22715,6588
22701,6621
22573,6813
22496,6890
22350,6987
22391,6988
22627,7086
22678,7201
22223,7656
21769,7201
21810,7110
19410,7110
19410,7535
21495,7535
21583,7323
21698,7272
21961,7535
22035,7535
22035,7609
22153,7726
22147,7732
22218,7803
22223,7797
22678,8251
22627,8366
22351,8472
22056,8464
22035,8456
22035,8783
21688,8783
21750,8876
21800,9129
21750,9383
21606,9599
21547,9638
21621,9696
21748,9922
21762,9977
21715,10079
20792,10079
20792,10072
20692,10072
20692,10079
19769,10079
19723,9977
19736,9922
19864,9696
19938,9638
19879,9599
19864,9576
19062,9576
19047,9599
18988,9638
19062,9696
19189,9922
19203,9977
19156,10079
18233,10079
18233,10072
18133,10072
18133,10079
17210,10079
17164,9977
17177,9922
17305,9696
17379,9638
17320,9599
17305,9576
16502,9576
16488,9599
16429,9638
16503,9696
16630,9922
16644,9977
16597,10079
15674,10079
15674,10072
15574,10072
15574,10079
14651,10079
14605,9977
14618,9922
14746,9696
14820,9638
14761,9599
14746,9576
13943,9576
13929,9599
13870,9638
13944,9696
14071,9922
14085,9977
14038,10079
13115,10079
13115,10072
13015,10072
13015,10079
12092,10079
12046,9977
12059,9922
12187,9696
12261,9638
12202,9599
12097,9442
9810,9442
9795,9465
9736,9504
9810,9562
9937,9788
9951,9843
9904,9946
8981,9946
8981,9938
8881,9938
8881,9946
7958,9946
7912,9843
7925,9788
8053,9562
8127,9504
8068,9465
8053,9442
6754,9442
5378,10818
5378,26818
5400,26833
5440,26892
5498,26818
5724,26690
5778,26677
5881,26724
5881,27646
5873,27646
5873,27746
5881,27746
5881,28669
5778,28716
5724,28702
5498,28575
5440,28501
5400,28560
5378,28575
5378,28826
6951,30399
10410,30399
10439,30356
10469,30336
10424,30301
10290,30065
10274,30003
10321,29896
11243,29896
11243,29904
11343,29904
11343,29896
12266,29896
12313,30003
12297,30065
12163,30301
12118,30336
12148,30356
12167,30383
18678,30383
18706,30340
18721,30330
18706,30320
18556,30095
18503,29830
18556,29565
18706,29340
18721,29330
18706,29320
18556,29095
18503,28830
18556,28565
18706,28340
18721,28330
18706,28320
18556,28095
18503,27830
18556,27565
18706,27340
18721,27330
18706,27320
18556,27095
18503,26830
18556,26565
18706,26340
18721,26330
18706,26320
18556,26095
18503,25830
18556,25565
18706,25340
18721,25330
18706,25320
18621,25192
18138,25675
18138,26712
18138,26712
18128,26762
18111,26845
18091,26877
18036,26958
15902,29092
15902,29092
15835,29137
15789,29168
15656,29194
15656,29194
12243,29194
12148,29336
12118,29356
12163,29391
12297,29627
12313,29688
12266,29796
11343,29796
11343,29788
11243,29788
11243,29796
10321,29796
10274,29688
10290,29627
10424,29391
10469,29356
10439,29336
10344,29194
8309,29194
8309,29194
8198,29172
8176,29168
8063,29092
7685,28714
7685,28714
7678,28704
7677,28704
7462,28560
7431,28514
7400,28560
7185,28704
6931,28754
6677,28704
6462,28560
6423,28501
6365,28575
6139,28702
6084,28716
5981,28669
5981,27746
5989,27746
5989,27646
5981,27646
5981,26724
6084,26677
6139,26690
6365,26818
6423,26892
6462,26833
6583,26752
6583,26350
6583,26350
6609,26217
6614,26209
6614,11948
6614,11948
6639,11824
6641,11815
6716,11702
6716,11702
7669,10749
7680,10742
7782,10674
7804,10669
7916,10647
7916,10647
7987,10647
8068,10526
8127,10487
8053,10429
7925,10203
7912,10148
7958,10046
8881,10046
8881,10053
8981,10053
8981,10046
9904,10046
9951,10148
9937,10203
9810,10429
9736,10487
9795,10526
9875,10647
10734,10647
10734,10647
10868,10674
10868,10674
10868,10674
10981,10749
10981,10749
12028,11797
12111,11797
12202,11660
12261,11621
12187,11563
12059,11337
12046,11282
12092,11179
13015,11179
13015,11187
13115,11187
13115,11179
14038,11179
14085,11282
14071,11337
13944,11563
13870,11621
13929,11660
14009,11781
14680,11781
14761,11660
14820,11621
14746,11563
14618,11337
14605,11282
14651,11179
15574,11179
15574,11187
15674,11187
15674,11179
16597,11179
16644,11282
16630,11337
16503,11563
16429,11621
16488,11660
16568,11781
17239,11781
17320,11660
17379,11621
17305,11563
17177,11337
17164,11282
17210,11179
18133,11179
18133,11187
18233,11187
18233,11179
19156,11179
19203,11282
19189,11337
19062,11563
18988,11621
19047,11660
19127,11781
19798,11781
19879,11660
19938,11621
19864,11563
19736,11337
19723,11282
19769,11179
20692,11179
20692,11187
20792,11187
20792,11179
21715,11179
21762,11282
21748,11337
21621,11563
21547,11621
21606,11660
21693,11790
22953,11782
22953,10282
21762,10282
21748,10337
21621,10563
21536,10629
21621,10696
21748,10922
21762,10977
21715,11079
20792,11079
20792,10179
20692,10179
20692,11079
19769,11079
19723,10977
19736,10922
19864,10696
19948,10629
19864,10563
19736,10337
19723,10282
19203,10282
19189,10337
19062,10563
18977,10629
19062,10696
19189,10922
19203,10977
19156,11079
18233,11079
18233,10179
18133,10179
18133,11079
17210,11079
17164,10977
17177,10922
17305,10696
17389,10629
17305,10563
17177,10337
17164,10282
16644,10282
16630,10337
16503,10563
16418,10629
16503,10696
16630,10922
16644,10977
16597,11079
15674,11079
15674,10179
15574,10179
15574,11079
14651,11079
14605,10977
14618,10922
14746,10696
14830,10629
14746,10563
14618,10337
14605,10282
14085,10282
14071,10337
13944,10563
13859,10629
13944,10696
14071,10922
14085,10977
14038,11079
13115,11079
13115,10179
13015,10179
13015,11079
12092,11079
12046,10977
12059,10922
12187,10696
12271,10629
12187,10563
12059,10337
12046,10282
12092,10179
13015,10179
13115,10179
14038,10179
14085,10282
14605,10282
14651,10179
15574,10179
15674,10179
16597,10179
16644,10282
17164,10282
17210,10179
18133,10179
18233,10179
19156,10179
19203,10282
19723,10282
19769,10179
20692,10179
20792,10179
21715,10179
21762,10282
22953,10282
22953,7914
22864,8130
22748,8180
22294,7726
22748,7272
22864,7323
22961,7577
22979,7484
22979,7484
23055,7371
23055,7371
24236,6190
24244,6185
24349,6115
24371,6110
24482,6088
24482,6088
26845,6088
26845,6088
26978,6115
26978,6115
26978,6115
27091,6190
27091,6190
27485,6584
27560,6697
27564,6716
27587,6830
27587,6830
27587,7170
27693,7064
27762,7018
27806,6989
27828,6984
27939,6962
27939,6962
28117,6962
28198,6841
28413,6698
28667,6647
29054,6647
29308,6698
29523,6841
29667,7057
29717,7311
29667,7564
29523,7780
29477,7811
29523,7841
29667,8057
29717,8311
29667,8564
29523,8780
29477,8811
29523,8841
29667,9057
29717,9311
29667,9564
29523,9780
29477,9811
29523,9841
29667,10057
29717,10311
29667,10564
29523,10780
29477,10811
29523,10841
29667,11057
29717,11311
29667,11564
29523,11780
29477,11811
29523,11841
29667,12057
29717,12311
29667,12564
29523,12780
29477,12811
29523,12841
29667,13057
29717,13311
29667,13564
29523,13780
29477,13811
29523,13841
29667,14057
29717,14311
29667,14564
29523,14780
29308,14923
29307,14924
29307,15248
29273,15419
29201,15526
29176,15564
27870,16870
31491,20491
31588,20636
31622,20807
31622,23073
31665,23101
31816,23326
31868,23591
31868,24321
31816,24586
31665,24811
31441,24961
31175,25014
30910,24961
30685,24811
30665,24781
30630,24826
30394,24960
30333,24975
30225,24929
30225,24006
30233,24006
30233,23906
30225,23906
30225,22983
30125,22983
30125,23906
30117,23906
30117,24006
30125,24006
30125,24929
30018,24975
29956,24960
29721,24826
29686,24781
29665,24811
29441,24961
29175,25014
28910,24961
28685,24811
28675,24796
28665,24811
28620,24841
28620,25965
28715,25965
28807,25983
28892,26037
28950,26121
28970,26220
28970,27204
28952,27297
28897,27382
28814,27439
28715,27459
27730,27459
27638,27442
27553,27387
27496,27303
27476,27204
27476,26220
27493,26127
27548,26042
27631,25985
27730,25965
27825,25965
27825,24904
27685,24811
27535,24586
27482,24321
27482,23591
27535,23326
27685,23101
27910,22951
28175,22898
28441,22951
28665,23101
28675,23116
28685,23101
28739,23066
28452,22779
27797,22779
27439,23137
27439,27303
27409,27455
27323,27584
26795,28111
26666,28198
26514,28228
26478,28228
26416,28320
26401,28330
26416,28340
26566,28565
26619,28830
26566,29095
26416,29320
26401,29330
26416,29340
26566,29565
26619,29830
26566,30095
26416,30320
26401,30330
26416,30340
26566,30565
26619,30830
26566,31095
26416,31320
26401,31330
26416,31340
26566,31565
26619,31830
26566,32095
26416,32320
26191,32470
25926,32523
25196,32523
24931,32470
24706,32320
24556,32095
24503,31830
24556,31565
24706,31340
24721,31330
24706,31320
24556,31095
24503,30830
24556,30565
24706,30340
24721,30330
24706,30320
24556,30095
24503,29830
24556,29565
24706,29340
24721,29330
24706,29320
24556,29095
24503,28830
24556,28565
24706,28340
24721,28330
24706,28320
24556,28095
24503,27830
24556,27565
24706,27340
24721,27330
24706,27320
24556,27095
24503,26830
24556,26565
24706,26340
24721,26330
24706,26320
24556,26095
24503,25830
24556,25565
24706,25340
24721,25330
24706,25320
24556,25095
24503,24830
24556,24565
24706,24340
24721,24330
24706,24320
24556,24095
24503,23830
24556,23565
24706,23340
24721,23330
24706,23320
24556,23095
24503,22830
24556,22565
24706,22340
24721,22330
24706,22320
24556,22095
24503,21830
24556,21565
24706,21340
24737,21320
24691,21285
24557,21049
24542,20988
24588,20880
25511,20880
25511,20888
25611,20888
25611,20880
26534,20880
26580,20988
26565,21049
26431,21285
26386,21320
26416,21340
26566,21565
26619,21830
26566,22095
26416,22320
26401,22330
26416,22340
26566,22565
26619,22830
26566,23095
26416,23320
26401,23330
26416,23340
26566,23565
26619,23830
26566,24095
26416,24320
26401,24330
26416,24340
26566,24565
26619,24830
26566,25095
26416,25320
26401,25330
26416,25340
26566,25565
26619,25830
26566,26095
26416,26320
26401,26330
26416,26340
26566,26565
26619,26830
26566,27095
26416,27320
26401,27330
26416,27340
26426,27356
26644,27138
26644,22972
26674,22820
26760,22691
27351,22100
27480,22014
27632,21984
28616,21984
28768,22014
28897,22100
29457,22659
29543,22788
29573,22940
29573,23040
29665,23101
29686,23132
29721,23086
29956,22952
30018,22937
30125,22983
30225,22983
30333,22937
30394,22952
30630,23086
30665,23132
30685,23101
30729,23073
30729,20992
27053,17316
26380,17316
26416,17340
26566,17565
26619,17830
26566,18095
26416,18320
26401,18330
26416,18340
26566,18565
26619,18830
26566,19095
26416,19320
26401,19330
26416,19340
26566,19565
26619,19830
26566,20095
26416,20320
26386,20340
26431,20376
26565,20611
26580,20673
26534,20780
25611,20780
25611,20772
25511,20772
25511,20780
24588,20780
24542,20673
24557,20611
24691,20376
24737,20340
24706,20320
24556,20095
24503,19830
24556,19565
24706,19340
24721,19330
24706,19320
24556,19095
24503,18830
24556,18565
24706,18340
24721,18330
24706,18320
24556,18095
24503,17830
24556,17565
24706,17340
24742,17316
20380,17316
20416,17340
20445,17383
21112,17383
21283,17417
21421,17510
21428,17514
23027,19113
23124,19258
23158,19429
23158,31055
24668,32564
28038,32564
29547,31055
29547,29074
28916,29074
28893,29189
28828,29286
28731,29351
28616,29374
28522,29355
28522,29468
28499,29583
28434,29680
28337,29744
28223,29767
28108,29744
28011,29680
27946,29583
27923,29468
27923,29355
27829,29374
27714,29351
27617,29286
27552,29189
27530,29074
27552,28960
27617,28863
27923,28557
27923,27893
27946,27779
28011,27682
28108,27617
28223,27594
28337,27617
28434,27682
28499,27779
28522,27893
28522,28557
28828,28863
28893,28960
28916,29074
29547,29074
29547,27303
29581,27132
29678,26987
30466,26199
30480,26190
30611,26102
30782,26068
30884,26068
30899,25990
30953,25904
31037,25847
31136,25827
32002,25827
32095,25845
32180,25899
32237,25983
32257,26082
32257,26948
32240,27041
32185,27126
32163,27141
32166,27144
32254,27356
32207,27465
31619,27465
31619,27457
31519,27457
31519,27465
30931,27465
30885,27356
30973,27144
30975,27142
30958,27131
30901,27047
30898,27031
30441,27488
30441,27772
30925,27772
30885,27674
30931,27565
31519,27565
31519,27573
31619,27573
31619,27565
32207,27565
32254,27674
32173,27868
32173,30377
30441,30377
30441,31240
30407,31411
30367,31470
30310,31556
28539,33327
28394,33424
28223,33458
24482,33458
24311,33424
24166,33327
22395,31556
22338,31470
22298,31411
22264,31240
22264,19614
20927,18277
20445,18277
20416,18320
20386,18340
20431,18376
20565,18611
20580,18673
20534,18780
19611,18780
19611,18772
19511,18772
19511,18780
18588,18780
18542,18673
18557,18611
18691,18376
18737,18340
18706,18320
18556,18095
18503,17830
18556,17565
18642,17436
18040,18039
18040,19637
18674,20272
18556,20095
18503,19830
18556,19565
18706,19340
18737,19320
18691,19285
18557,19049
18542,18988
18588,18880
19511,18880
19511,18888
19611,18888
19611,18880
20534,18880
20580,18988
20565,19049
20431,19285
20386,19320
20416,19340
20566,19565
20619,19830
20566,20095
20416,20320
20401,20330
20416,20340
20566,20565
20619,20830
20566,21095
20416,21320
20401,21330
20416,21340
20566,21565
20619,21830
20566,22095
20416,22320
20401,22330
20416,22340
20566,22565
20619,22830
20566,23095
20416,23320
20401,23330
20416,23340
20566,23565
20619,23830
20566,24095
20416,24320
20401,24330
20416,24340
20566,24565
20619,24830
20566,25095
20416,25320
20401,25330
20416,25340
20566,25565
20619,25830
20566,26095
20416,26320
20401,26330
20416,26340
20566,26565
20619,26830
20566,27095
20416,27320
20401,27330
20416,27340
20566,27565
20619,27830
20566,28095
20416,28320
20401,28330
20416,28340
20566,28565
20619,28830
20566,29095
20416,29320
20401,29330
20416,29340
20566,29565
20619,29830
20566,30095
20416,30320
20401,30330
20416,30340
20566,30565
20619,30830
20566,31095
20416,31320
20401,31330
20416,31340
20566,31565
20619,31830
20566,32095
20416,32320
20191,32470
19926,32523
19196,32523
18931,32470
18706,32320
18556,32095
18503,31830
18556,31565
18706,31340
18721,31330
18706,31320
18678,31277
12188,31277
12148,31336
11923,31486
11658,31539
10929,31539
10664,31486
10439,31336
10410,31293
6766,31293
6595,31259
6450,31162
4615,29327
4588,29286
4518,29182
4484,29011
4484,28575
4462,28560
4318,28345
4268,28091
4268,27302
4318,27048
4462,26833
4484,26818
4484,10633
4518,10462
4615,10317
6253,8680
6398,8583
6569,8549
8053,8549
8068,8526
8283,8383
8537,8332
9326,8332
9579,8383
9795,8526
9810,8549
11772,8549
11772,7535
14200,7535
14200,7110
12081,7110
12054,7104
12026,7104
11800,7059
11700,7018
11508,6890
11431,6813
11303,6621
11261,6520
11216,6294
11216,6267
11211,6240
11211,4977
10587,4354
10081,4354
10081,5175
9254,5175
9254,7789
7461,7789
7461,7699
7356,7720
7242,7697
7145,7632
6948,7435
6883,7338
6860,7224
6883,7109
6948,7012
7045,6947
7057,6945
7057,5175
5813,5175
5813,4354
4523,4354
4849,4489
5169,4808
5342,5225
5343,5677
5170,6095
4851,6415
4434,6588
3982,6588
3564,6416
3245,6096
3108,5769
3108,32695
3243,32369
3563,32049
3980,31876
4432,31875
4849,32048
5169,32367
5342,32784
5343,33236
5170,33654
4851,33974
4523,34110
31450,34110
31123,33975
30804,33656
30630,33238
30630,32786
30802,32369
31122,32049
31539,31876
31991,31875
32408,32048
32728,32367
32864,32695
32864,5768
32729,6095
32410,6415
31993,6588
31541,6588
31123,6416
30804,6096
30630,5679
30630,5227
30802,4810
31122,4490
31449,4354
23417,4354
22793,4977
" /> 
<polyline style="fill-rule:evenodd;"
points="26542,6877
26670,7103
26683,7158
26636,7261
25910,7261
25910,7253
25810,7253
25810,7261
25803,7261
25803,7361
25810,7361
25810,8261
25084,8261
25080,8251
24978,8251
24927,8366
24651,8472
24356,8464
24120,8366
24069,8251
24523,7797
24978,8251
25080,8251
25048,8180
24594,7726
24600,7721
24529,7650
24523,7656
24518,7650
24447,7721
24453,7726
23998,8180
23883,8130
23778,7854
23784,7628
23650,7762
23650,11948
23650,11948
23637,12014
23623,12082
23559,12177
23548,12195
23367,12376
23311,12413
23256,12450
23255,12451
23254,12451
23188,12464
23123,12478
21680,12487
21606,12599
21559,12629
21606,12660
21686,12781
23748,12781
23937,12591
23937,10964
23937,10964
23964,10831
23989,10793
24039,10718
24039,10718
24693,10064
24721,10046
24806,9989
24828,9984
24939,9962
24939,9962
25117,9962
25198,9841
25254,9803
25179,9744
25051,9518
25038,9463
25084,9361
25810,9361
25810,9368
25910,9368
25910,9361
26636,9361
26683,9463
26670,9518
26542,9744
26466,9803
26523,9841
26667,10057
26717,10311
26667,10564
26523,10780
26477,10811
26523,10841
26667,11057
26717,11311
26667,11564
26523,11780
26477,11811
26523,11841
26667,12057
26669,12067
26890,12288
26890,8463
26683,8463
26670,8518
26542,8744
26457,8811
26542,8877
26670,9103
26683,9158
26636,9261
25910,9261
25910,8361
25810,8361
25810,9261
25084,9261
25038,9158
25051,9103
25179,8877
25263,8811
25179,8744
25051,8518
25038,8463
25084,8361
25810,8361
25910,8361
26636,8361
26683,8463
26890,8463
26890,7463
26683,7463
26670,7518
26542,7744
26457,7811
26542,7877
26670,8103
26683,8158
26636,8261
25910,8261
25910,7361
26636,7361
26683,7463
26890,7463
26890,6975
26700,6785
26425,6785
26542,6877
" /> 
</g>
<g style="fill:#FFFFFF; fill-opacity:1.0; 
stroke:#FFFFFF; stroke-width:100; stroke-opacity:1; 
stroke-linecap:round; stroke-linejoin:round;">
</g>
<g style="fill:#FFFFFF; fill-opacity:1.0; 
stroke:#FFFFFF; stroke-width:0; stroke-opacity:1; 
stroke-linecap:round; stroke-linejoin:round;">
<circle cx="24523.9" cy="7726.77" r="78.7402" /> 
</g>
<g style="fill:#FFFFFF; fill-opacity:1.0; 
stroke:#FFFFFF; stroke-width:39.3701; stroke-opacity:1; 
stroke-linecap:round; stroke-linejoin:round;">
</g>
<g style="fill:#FFFFFF; fill-opacity:1.0; 
stroke:#FFFFFF; stroke-width:0; stroke-opacity:1; 
stroke-linecap:round; stroke-linejoin:round;">
<circle cx="22223.9" cy="7726.77" r="78.7402" /> 
</g>
<g style="fill:#FFFFFF; fill-opacity:1.0; 
stroke:#FFFFFF; stroke-width:39.3701; stroke-opacity:1; 
stroke-linecap:round; stroke-linejoin:round;">
</g>
<g style="fill:#FFFFFF; fill-opacity:1.0; 
stroke:#FFFFFF; stroke-width:0; stroke-opacity:1; 
stroke-linecap:round; stroke-linejoin:round;">
<circle cx="8931.78" cy="27696.9" r="98.4252" /> 
</g>
<g style="fill:#FFFFFF; fill-opacity:1.0; 
stroke:#FFFFFF; stroke-width:39.3701; stroke-opacity:1; 
stroke-linecap:round; stroke-linejoin:round;">
</g>
<g style="fill:#FFFFFF; fill-opacity:1.0; 
stroke:#FFFFFF; stroke-width:0; stroke-opacity:1; 
stroke-linecap:round; stroke-linejoin:round;">
<circle cx="7931.78" cy="27696.9" r="98.4252" /> 
</g>
<g style="fill:#FFFFFF; fill-opacity:1.0; 
stroke:#FFFFFF; stroke-width:39.3701; stroke-opacity:1; 
stroke-linecap:round; stroke-linejoin:round;">
</g>
<g style="fill:#FFFFFF; fill-opacity:1.0; 
stroke:#FFFFFF; stroke-width:0; stroke-opacity:1; 
stroke-linecap:round; stroke-linejoin:round;">
<circle cx="6931.78" cy="27696.9" r="98.4252" /> 
</g>
<g style="fill:#FFFFFF; fill-opacity:1.0; 
stroke:#FFFFFF; stroke-width:39.3701; stroke-opacity:1; 
stroke-linecap:round; stroke-linejoin:round;">
</g>
<g style="fill:#FFFFFF; fill-opacity:1.0; 
stroke:#FFFFFF; stroke-width:0; stroke-opacity:1; 
stroke-linecap:round; stroke-linejoin:round;">
<circle cx="5931.78" cy="27696.9" r="98.4252" /> 
</g>
<g style="fill:#FFFFFF; fill-opacity:1.0; 
stroke:#FFFFFF; stroke-width:39.3701; stroke-opacity:1; 
stroke-linecap:round; stroke-linejoin:round;">
</g>
<g style="fill:#FFFFFF; fill-opacity:1.0; 
stroke:#FFFFFF; stroke-width:0; stroke-opacity:1; 
stroke-linecap:round; stroke-linejoin:round;">
<circle cx="4931.78" cy="27696.9" r="98.4252" /> 
</g>
<g style="fill:#FFFFFF; fill-opacity:1.0; 
stroke:#FFFFFF; stroke-width:39.3701; stroke-opacity:1; 
stroke-linecap:round; stroke-linejoin:round;">
</g>
<g style="fill:#FFFFFF; fill-opacity:1.0; 
stroke:#FFFFFF; stroke-width:0; stroke-opacity:1; 
stroke-linecap:round; stroke-linejoin:round;">
<circle cx="22223.9" cy="7726.77" r="98.4252" /> 
</g>
<g style="fill:#FFFFFF; fill-opacity:1.0; 
stroke:#FFFFFF; stroke-width:39.3701; stroke-opacity:1; 
stroke-linecap:round; stroke-linejoin:round;">
</g>
<g style="fill:#FFFFFF; fill-opacity:1.0; 
stroke:#FFFFFF; stroke-width:0; stroke-opacity:1; 
stroke-linecap:round; stroke-linejoin:round;">
<circle cx="25860.9" cy="14311" r="98.4252" /> 
</g>
<g style="fill:#FFFFFF; fill-opacity:1.0; 
stroke:#FFFFFF; stroke-width:39.3701; stroke-opacity:1; 
stroke-linecap:round; stroke-linejoin:round;">
</g>
<g style="fill:#FFFFFF; fill-opacity:1.0; 
stroke:#FFFFFF; stroke-width:0; stroke-opacity:1; 
stroke-linecap:round; stroke-linejoin:round;">
<circle cx="25860.9" cy="13311" r="98.4252" /> 
</g>
<g style="fill:#FFFFFF; fill-opacity:1.0; 
stroke:#FFFFFF; stroke-width:39.3701; stroke-opacity:1; 
stroke-linecap:round; stroke-linejoin:round;">
</g>
<g style="fill:#FFFFFF; fill-opacity:1.0; 
stroke:#FFFFFF; stroke-width:0; stroke-opacity:1; 
stroke-linecap:round; stroke-linejoin:round;">
<circle cx="25860.9" cy="12311" r="98.4252" /> 
</g>
<g style="fill:#FFFFFF; fill-opacity:1.0; 
stroke:#FFFFFF; stroke-width:39.3701; stroke-opacity:1; 
stroke-linecap:round; stroke-linejoin:round;">
</g>
<g style="fill:#FFFFFF; fill-opacity:1.0; 
stroke:#FFFFFF; stroke-width:0; stroke-opacity:1; 
stroke-linecap:round; stroke-linejoin:round;">
<circle cx="25860.9" cy="11311" r="98.4252" /> 
</g>
<g style="fill:#FFFFFF; fill-opacity:1.0; 
stroke:#FFFFFF; stroke-width:39.3701; stroke-opacity:1; 
stroke-linecap:round; stroke-linejoin:round;">
</g>
<g style="fill:#FFFFFF; fill-opacity:1.0; 
stroke:#FFFFFF; stroke-width:0; stroke-opacity:1; 
stroke-linecap:round; stroke-linejoin:round;">
<circle cx="25860.9" cy="10311" r="98.4252" /> 
</g>
<g style="fill:#FFFFFF; fill-opacity:1.0; 
stroke:#FFFFFF; stroke-width:39.3701; stroke-opacity:1; 
stroke-linecap:round; stroke-linejoin:round;">
</g>
<g style="fill:#FFFFFF; fill-opacity:1.0; 
stroke:#FFFFFF; stroke-width:0; stroke-opacity:1; 
stroke-linecap:round; stroke-linejoin:round;">
<circle cx="25860.9" cy="9311.02" r="98.4252" /> 
</g>
<g style="fill:#FFFFFF; fill-opacity:1.0; 
stroke:#FFFFFF; stroke-width:39.3701; stroke-opacity:1; 
stroke-linecap:round; stroke-linejoin:round;">
</g>
<g style="fill:#FFFFFF; fill-opacity:1.0; 
stroke:#FFFFFF; stroke-width:0; stroke-opacity:1; 
stroke-linecap:round; stroke-linejoin:round;">
<circle cx="25860.9" cy="8311.02" r="98.4252" /> 
</g>
<g style="fill:#FFFFFF; fill-opacity:1.0; 
stroke:#FFFFFF; stroke-width:39.3701; stroke-opacity:1; 
stroke-linecap:round; stroke-linejoin:round;">
</g>
<g style="fill:#FFFFFF; fill-opacity:1.0; 
stroke:#FFFFFF; stroke-width:0; stroke-opacity:1; 
stroke-linecap:round; stroke-linejoin:round;">
<circle cx="25860.9" cy="7311.02" r="98.4252" /> 
</g>
<g style="fill:#FFFFFF; fill-opacity:1.0; 
stroke:#FFFFFF; stroke-width:39.3701; stroke-opacity:1; 
stroke-linecap:round; stroke-linejoin:round;">
</g>
<g style="fill:#FFFFFF; fill-opacity:1.0; 
stroke:#FFFFFF; stroke-width:0; stroke-opacity:1; 
stroke-linecap:round; stroke-linejoin:round;">
<circle cx="28860.9" cy="7311.02" r="98.4252" /> 
</g>
<g style="fill:#FFFFFF; fill-opacity:1.0; 
stroke:#FFFFFF; stroke-width:39.3701; stroke-opacity:1; 
stroke-linecap:round; stroke-linejoin:round;">
</g>
<g style="fill:#FFFFFF; fill-opacity:1.0; 
stroke:#FFFFFF; stroke-width:0; stroke-opacity:1; 
stroke-linecap:round; stroke-linejoin:round;">
<circle cx="28860.9" cy="8311.02" r="98.4252" /> 
</g>
<g style="fill:#FFFFFF; fill-opacity:1.0; 
stroke:#FFFFFF; stroke-width:39.3701; stroke-opacity:1; 
stroke-linecap:round; stroke-linejoin:round;">
</g>
<g style="fill:#FFFFFF; fill-opacity:1.0; 
stroke:#FFFFFF; stroke-width:0; stroke-opacity:1; 
stroke-linecap:round; stroke-linejoin:round;">
<circle cx="28860.9" cy="9311.02" r="98.4252" /> 
</g>
<g style="fill:#FFFFFF; fill-opacity:1.0; 
stroke:#FFFFFF; stroke-width:39.3701; stroke-opacity:1; 
stroke-linecap:round; stroke-linejoin:round;">
</g>
<g style="fill:#FFFFFF; fill-opacity:1.0; 
stroke:#FFFFFF; stroke-width:0; stroke-opacity:1; 
stroke-linecap:round; stroke-linejoin:round;">
<circle cx="28860.9" cy="10311" r="98.4252" /> 
</g>
<g style="fill:#FFFFFF; fill-opacity:1.0; 
stroke:#FFFFFF; stroke-width:39.3701; stroke-opacity:1; 
stroke-linecap:round; stroke-linejoin:round;">
</g>
<g style="fill:#FFFFFF; fill-opacity:1.0; 
stroke:#FFFFFF; stroke-width:0; stroke-opacity:1; 
stroke-linecap:round; stroke-linejoin:round;">
<circle cx="28860.9" cy="11311" r="98.4252" /> 
</g>
<g style="fill:#FFFFFF; fill-opacity:1.0; 
stroke:#FFFFFF; stroke-width:39.3701; stroke-opacity:1; 
stroke-linecap:round; stroke-linejoin:round;">
</g>
<g style="fill:#FFFFFF; fill-opacity:1.0; 
stroke:#FFFFFF; stroke-width:0; stroke-opacity:1; 
stroke-linecap:round; stroke-linejoin:round;">
<circle cx="28860.9" cy="12311" r="98.4252" /> 
</g>
<g style="fill:#FFFFFF; fill-opacity:1.0; 
stroke:#FFFFFF; stroke-width:39.3701; stroke-opacity:1; 
stroke-linecap:round; stroke-linejoin:round;">
</g>
<g style="fill:#FFFFFF; fill-opacity:1.0; 
stroke:#FFFFFF; stroke-width:0; stroke-opacity:1; 
stroke-linecap:round; stroke-linejoin:round;">
<circle cx="28860.9" cy="13311" r="98.4252" /> 
</g>
<g style="fill:#FFFFFF; fill-opacity:1.0; 
stroke:#FFFFFF; stroke-width:39.3701; stroke-opacity:1; 
stroke-linecap:round; stroke-linejoin:round;">
</g>
<g style="fill:#FFFFFF; fill-opacity:1.0; 
stroke:#FFFFFF; stroke-width:0; stroke-opacity:1; 
stroke-linecap:round; stroke-linejoin:round;">
<circle cx="28860.9" cy="14311" r="98.4252" /> 
</g>
<g style="fill:#FFFFFF; fill-opacity:1.0; 
stroke:#FFFFFF; stroke-width:39.3701; stroke-opacity:1; 
stroke-linecap:round; stroke-linejoin:round;">
</g>
<g style="fill:#FFFFFF; fill-opacity:1.0; 
stroke:#FFFFFF; stroke-width:0; stroke-opacity:1; 
stroke-linecap:round; stroke-linejoin:round;">
<circle cx="8931.78" cy="8996.06" r="98.4252" /> 
</g>
<g style="fill:#FFFFFF; fill-opacity:1.0; 
stroke:#FFFFFF; stroke-width:39.3701; stroke-opacity:1; 
stroke-linecap:round; stroke-linejoin:round;">
</g>
<g style="fill:#FFFFFF; fill-opacity:1.0; 
stroke:#FFFFFF; stroke-width:0; stroke-opacity:1; 
stroke-linecap:round; stroke-linejoin:round;">
<circle cx="8931.78" cy="9996.06" r="98.4252" /> 
</g>
<g style="fill:#FFFFFF; fill-opacity:1.0; 
stroke:#FFFFFF; stroke-width:39.3701; stroke-opacity:1; 
stroke-linecap:round; stroke-linejoin:round;">
</g>
<g style="fill:#FFFFFF; fill-opacity:1.0; 
stroke:#FFFFFF; stroke-width:0; stroke-opacity:1; 
stroke-linecap:round; stroke-linejoin:round;">
<circle cx="8931.78" cy="10996.1" r="98.4252" /> 
</g>
<g style="fill:#FFFFFF; fill-opacity:1.0; 
stroke:#FFFFFF; stroke-width:39.3701; stroke-opacity:1; 
stroke-linecap:round; stroke-linejoin:round;">
</g>
<g style="fill:#FFFFFF; fill-opacity:1.0; 
stroke:#FFFFFF; stroke-width:0; stroke-opacity:1; 
stroke-linecap:round; stroke-linejoin:round;">
<circle cx="8931.78" cy="11996.1" r="98.4252" /> 
</g>
<g style="fill:#FFFFFF; fill-opacity:1.0; 
stroke:#FFFFFF; stroke-width:39.3701; stroke-opacity:1; 
stroke-linecap:round; stroke-linejoin:round;">
</g>
<g style="fill:#FFFFFF; fill-opacity:1.0; 
stroke:#FFFFFF; stroke-width:0; stroke-opacity:1; 
stroke-linecap:round; stroke-linejoin:round;">
<circle cx="8931.78" cy="12996.1" r="98.4252" /> 
</g>
<g style="fill:#FFFFFF; fill-opacity:1.0; 
stroke:#FFFFFF; stroke-width:39.3701; stroke-opacity:1; 
stroke-linecap:round; stroke-linejoin:round;">
</g>
<g style="fill:#FFFFFF; fill-opacity:1.0; 
stroke:#FFFFFF; stroke-width:0; stroke-opacity:1; 
stroke-linecap:round; stroke-linejoin:round;">
<circle cx="8931.78" cy="13996.1" r="98.4252" /> 
</g>
<g style="fill:#FFFFFF; fill-opacity:1.0; 
stroke:#FFFFFF; stroke-width:39.3701; stroke-opacity:1; 
stroke-linecap:round; stroke-linejoin:round;">
</g>
<g style="fill:#FFFFFF; fill-opacity:1.0; 
stroke:#FFFFFF; stroke-width:0; stroke-opacity:1; 
stroke-linecap:round; stroke-linejoin:round;">
<circle cx="8931.78" cy="14996.1" r="98.4252" /> 
</g>
<g style="fill:#FFFFFF; fill-opacity:1.0; 
stroke:#FFFFFF; stroke-width:39.3701; stroke-opacity:1; 
stroke-linecap:round; stroke-linejoin:round;">
</g>
<g style="fill:#FFFFFF; fill-opacity:1.0; 
stroke:#FFFFFF; stroke-width:0; stroke-opacity:1; 
stroke-linecap:round; stroke-linejoin:round;">
<circle cx="8931.78" cy="15996.1" r="98.4252" /> 
</g>
<g style="fill:#FFFFFF; fill-opacity:1.0; 
stroke:#FFFFFF; stroke-width:39.3701; stroke-opacity:1; 
stroke-linecap:round; stroke-linejoin:round;">
</g>
<g style="fill:#FFFFFF; fill-opacity:1.0; 
stroke:#FFFFFF; stroke-width:0; stroke-opacity:1; 
stroke-linecap:round; stroke-linejoin:round;">
<circle cx="21923.9" cy="6240.16" r="98.4252" /> 
</g>
<g style="fill:#FFFFFF; fill-opacity:1.0; 
stroke:#FFFFFF; stroke-width:39.3701; stroke-opacity:1; 
stroke-linecap:round; stroke-linejoin:round;">
</g>
<g style="fill:#FFFFFF; fill-opacity:1.0; 
stroke:#FFFFFF; stroke-width:0; stroke-opacity:1; 
stroke-linecap:round; stroke-linejoin:round;">
<circle cx="31766.4" cy="33011.8" r="98.4252" /> 
</g>
<g style="fill:#FFFFFF; fill-opacity:1.0; 
stroke:#FFFFFF; stroke-width:39.3701; stroke-opacity:1; 
stroke-linecap:round; stroke-linejoin:round;">
</g>
<g style="fill:#FFFFFF; fill-opacity:1.0; 
stroke:#FFFFFF; stroke-width:0; stroke-opacity:1; 
stroke-linecap:round; stroke-linejoin:round;">
<circle cx="31766.4" cy="5452.76" r="98.4252" /> 
</g>
<g style="fill:#FFFFFF; fill-opacity:1.0; 
stroke:#FFFFFF; stroke-width:39.3701; stroke-opacity:1; 
stroke-linecap:round; stroke-linejoin:round;">
</g>
<g style="fill:#FFFFFF; fill-opacity:1.0; 
stroke:#FFFFFF; stroke-width:0; stroke-opacity:1; 
stroke-linecap:round; stroke-linejoin:round;">
<circle cx="4207.37" cy="5452.76" r="98.4252" /> 
</g>
<g style="fill:#FFFFFF; fill-opacity:1.0; 
stroke:#FFFFFF; stroke-width:39.3701; stroke-opacity:1; 
stroke-linecap:round; stroke-linejoin:round;">
</g>
<g style="fill:#FFFFFF; fill-opacity:1.0; 
stroke:#FFFFFF; stroke-width:0; stroke-opacity:1; 
stroke-linecap:round; stroke-linejoin:round;">
<circle cx="4207.37" cy="33011.8" r="98.4252" /> 
</g>
<g style="fill:#FFFFFF; fill-opacity:1.0; 
stroke:#FFFFFF; stroke-width:39.3701; stroke-opacity:1; 
stroke-linecap:round; stroke-linejoin:round;">
</g>
<g style="fill:#FFFFFF; fill-opacity:1.0; 
stroke:#FFFFFF; stroke-width:0; stroke-opacity:1; 
stroke-linecap:round; stroke-linejoin:round;">
<circle cx="28223.1" cy="26712.6" r="98.4252" /> 
</g>
<g style="fill:#FFFFFF; fill-opacity:1.0; 
stroke:#FFFFFF; stroke-width:39.3701; stroke-opacity:1; 
stroke-linecap:round; stroke-linejoin:round;">
</g>
<g style="fill:#FFFFFF; fill-opacity:1.0; 
stroke:#FFFFFF; stroke-width:0; stroke-opacity:1; 
stroke-linecap:round; stroke-linejoin:round;">
<circle cx="31569.6" cy="26515.7" r="98.4252" /> 
</g>
<g style="fill:#FFFFFF; fill-opacity:1.0; 
stroke:#FFFFFF; stroke-width:39.3701; stroke-opacity:1; 
stroke-linecap:round; stroke-linejoin:round;">
</g>
<g style="fill:#FFFFFF; fill-opacity:1.0; 
stroke:#FFFFFF; stroke-width:0; stroke-opacity:1; 
stroke-linecap:round; stroke-linejoin:round;">
<circle cx="31569.6" cy="27515.7" r="98.4252" /> 
</g>
<g style="fill:#FFFFFF; fill-opacity:1.0; 
stroke:#FFFFFF; stroke-width:39.3701; stroke-opacity:1; 
stroke-linecap:round; stroke-linejoin:round;">
</g>
<g style="fill:#FFFFFF; fill-opacity:1.0; 
stroke:#FFFFFF; stroke-width:0; stroke-opacity:1; 
stroke-linecap:round; stroke-linejoin:round;">
<circle cx="31175.9" cy="23956.7" r="98.4252" /> 
</g>
<g style="fill:#FFFFFF; fill-opacity:1.0; 
stroke:#FFFFFF; stroke-width:39.3701; stroke-opacity:1; 
stroke-linecap:round; stroke-linejoin:round;">
</g>
<g style="fill:#FFFFFF; fill-opacity:1.0; 
stroke:#FFFFFF; stroke-width:0; stroke-opacity:1; 
stroke-linecap:round; stroke-linejoin:round;">
<circle cx="30175.9" cy="23956.7" r="98.4252" /> 
</g>
<g style="fill:#FFFFFF; fill-opacity:1.0; 
stroke:#FFFFFF; stroke-width:39.3701; stroke-opacity:1; 
stroke-linecap:round; stroke-linejoin:round;">
</g>
<g style="fill:#FFFFFF; fill-opacity:1.0; 
stroke:#FFFFFF; stroke-width:0; stroke-opacity:1; 
stroke-linecap:round; stroke-linejoin:round;">
<circle cx="29175.9" cy="23956.7" r="98.4252" /> 
</g>
<g style="fill:#FFFFFF; fill-opacity:1.0; 
stroke:#FFFFFF; stroke-width:39.3701; stroke-opacity:1; 
stroke-linecap:round; stroke-linejoin:round;">
</g>
<g style="fill:#FFFFFF; fill-opacity:1.0; 
stroke:#FFFFFF; stroke-width:0; stroke-opacity:1; 
stroke-linecap:round; stroke-linejoin:round;">
<circle cx="28175.9" cy="23956.7" r="98.4252" /> 
</g>
<g style="fill:#FFFFFF; fill-opacity:1.0; 
stroke:#FFFFFF; stroke-width:39.3701; stroke-opacity:1; 
stroke-linecap:round; stroke-linejoin:round;">
</g>
<g style="fill:#FFFFFF; fill-opacity:1.0; 
stroke:#FFFFFF; stroke-width:0; stroke-opacity:1; 
stroke-linecap:round; stroke-linejoin:round;">
<circle cx="19561.7" cy="31830.7" r="98.4252" /> 
</g>
<g style="fill:#FFFFFF; fill-opacity:1.0; 
stroke:#FFFFFF; stroke-width:39.3701; stroke-opacity:1; 
stroke-linecap:round; stroke-linejoin:round;">
</g>
<g style="fill:#FFFFFF; fill-opacity:1.0; 
stroke:#FFFFFF; stroke-width:0; stroke-opacity:1; 
stroke-linecap:round; stroke-linejoin:round;">
<circle cx="19561.7" cy="30830.7" r="98.4252" /> 
</g>
<g style="fill:#FFFFFF; fill-opacity:1.0; 
stroke:#FFFFFF; stroke-width:39.3701; stroke-opacity:1; 
stroke-linecap:round; stroke-linejoin:round;">
</g>
<g style="fill:#FFFFFF; fill-opacity:1.0; 
stroke:#FFFFFF; stroke-width:0; stroke-opacity:1; 
stroke-linecap:round; stroke-linejoin:round;">
<circle cx="19561.7" cy="29830.7" r="98.4252" /> 
</g>
<g style="fill:#FFFFFF; fill-opacity:1.0; 
stroke:#FFFFFF; stroke-width:39.3701; stroke-opacity:1; 
stroke-linecap:round; stroke-linejoin:round;">
</g>
<g style="fill:#FFFFFF; fill-opacity:1.0; 
stroke:#FFFFFF; stroke-width:0; stroke-opacity:1; 
stroke-linecap:round; stroke-linejoin:round;">
<circle cx="19561.7" cy="28830.7" r="98.4252" /> 
</g>
<g style="fill:#FFFFFF; fill-opacity:1.0; 
stroke:#FFFFFF; stroke-width:39.3701; stroke-opacity:1; 
stroke-linecap:round; stroke-linejoin:round;">
</g>
<g style="fill:#FFFFFF; fill-opacity:1.0; 
stroke:#FFFFFF; stroke-width:0; stroke-opacity:1; 
stroke-linecap:round; stroke-linejoin:round;">
<circle cx="19561.7" cy="27830.7" r="98.4252" /> 
</g>
<g style="fill:#FFFFFF; fill-opacity:1.0; 
stroke:#FFFFFF; stroke-width:39.3701; stroke-opacity:1; 
stroke-linecap:round; stroke-linejoin:round;">
</g>
<g style="fill:#FFFFFF; fill-opacity:1.0; 
stroke:#FFFFFF; stroke-width:0; stroke-opacity:1; 
stroke-linecap:round; stroke-linejoin:round;">
<circle cx="19561.7" cy="26830.7" r="98.4252" /> 
</g>
<g style="fill:#FFFFFF; fill-opacity:1.0; 
stroke:#FFFFFF; stroke-width:39.3701; stroke-opacity:1; 
stroke-linecap:round; stroke-linejoin:round;">
</g>
<g style="fill:#FFFFFF; fill-opacity:1.0; 
stroke:#FFFFFF; stroke-width:0; stroke-opacity:1; 
stroke-linecap:round; stroke-linejoin:round;">
<circle cx="19561.7" cy="25830.7" r="98.4252" /> 
</g>
<g style="fill:#FFFFFF; fill-opacity:1.0; 
stroke:#FFFFFF; stroke-width:39.3701; stroke-opacity:1; 
stroke-linecap:round; stroke-linejoin:round;">
</g>
<g style="fill:#FFFFFF; fill-opacity:1.0; 
stroke:#FFFFFF; stroke-width:0; stroke-opacity:1; 
stroke-linecap:round; stroke-linejoin:round;">
<circle cx="19561.7" cy="24830.7" r="98.4252" /> 
</g>
<g style="fill:#FFFFFF; fill-opacity:1.0; 
stroke:#FFFFFF; stroke-width:39.3701; stroke-opacity:1; 
stroke-linecap:round; stroke-linejoin:round;">
</g>
<g style="fill:#FFFFFF; fill-opacity:1.0; 
stroke:#FFFFFF; stroke-width:0; stroke-opacity:1; 
stroke-linecap:round; stroke-linejoin:round;">
<circle cx="19561.7" cy="23830.7" r="98.4252" /> 
</g>
<g style="fill:#FFFFFF; fill-opacity:1.0; 
stroke:#FFFFFF; stroke-width:39.3701; stroke-opacity:1; 
stroke-linecap:round; stroke-linejoin:round;">
</g>
<g style="fill:#FFFFFF; fill-opacity:1.0; 
stroke:#FFFFFF; stroke-width:0; stroke-opacity:1; 
stroke-linecap:round; stroke-linejoin:round;">
<circle cx="19561.7" cy="22830.7" r="98.4252" /> 
</g>
<g style="fill:#FFFFFF; fill-opacity:1.0; 
stroke:#FFFFFF; stroke-width:39.3701; stroke-opacity:1; 
stroke-linecap:round; stroke-linejoin:round;">
</g>
<g style="fill:#FFFFFF; fill-opacity:1.0; 
stroke:#FFFFFF; stroke-width:0; stroke-opacity:1; 
stroke-linecap:round; stroke-linejoin:round;">
<circle cx="19561.7" cy="21830.7" r="98.4252" /> 
</g>
<g style="fill:#FFFFFF; fill-opacity:1.0; 
stroke:#FFFFFF; stroke-width:39.3701; stroke-opacity:1; 
stroke-linecap:round; stroke-linejoin:round;">
</g>
<g style="fill:#FFFFFF; fill-opacity:1.0; 
stroke:#FFFFFF; stroke-width:0; stroke-opacity:1; 
stroke-linecap:round; stroke-linejoin:round;">
<circle cx="19561.7" cy="20830.7" r="98.4252" /> 
</g>
<g style="fill:#FFFFFF; fill-opacity:1.0; 
stroke:#FFFFFF; stroke-width:39.3701; stroke-opacity:1; 
stroke-linecap:round; stroke-linejoin:round;">
</g>
<g style="fill:#FFFFFF; fill-opacity:1.0; 
stroke:#FFFFFF; stroke-width:0; stroke-opacity:1; 
stroke-linecap:round; stroke-linejoin:round;">
<circle cx="19561.7" cy="19830.7" r="98.4252" /> 
</g>
<g style="fill:#FFFFFF; fill-opacity:1.0; 
stroke:#FFFFFF; stroke-width:39.3701; stroke-opacity:1; 
stroke-linecap:round; stroke-linejoin:round;">
</g>
<g style="fill:#FFFFFF; fill-opacity:1.0; 
stroke:#FFFFFF; stroke-width:0; stroke-opacity:1; 
stroke-linecap:round; stroke-linejoin:round;">
<circle cx="19561.7" cy="18830.7" r="98.4252" /> 
</g>
<g style="fill:#FFFFFF; fill-opacity:1.0; 
stroke:#FFFFFF; stroke-width:39.3701; stroke-opacity:1; 
stroke-linecap:round; stroke-linejoin:round;">
</g>
<g style="fill:#FFFFFF; fill-opacity:1.0; 
stroke:#FFFFFF; stroke-width:0; stroke-opacity:1; 
stroke-linecap:round; stroke-linejoin:round;">
<circle cx="19561.7" cy="17830.7" r="98.4252" /> 
</g>
<g style="fill:#FFFFFF; fill-opacity:1.0; 
stroke:#FFFFFF; stroke-width:39.3701; stroke-opacity:1; 
stroke-linecap:round; stroke-linejoin:round;">
</g>
<g style="fill:#FFFFFF; fill-opacity:1.0; 
stroke:#FFFFFF; stroke-width:0; stroke-opacity:1; 
stroke-linecap:round; stroke-linejoin:round;">
<circle cx="25561.7" cy="17830.7" r="98.4252" /> 
</g>
<g style="fill:#FFFFFF; fill-opacity:1.0; 
stroke:#FFFFFF; stroke-width:39.3701; stroke-opacity:1; 
stroke-linecap:round; stroke-linejoin:round;">
</g>
<g style="fill:#FFFFFF; fill-opacity:1.0; 
stroke:#FFFFFF; stroke-width:0; stroke-opacity:1; 
stroke-linecap:round; stroke-linejoin:round;">
<circle cx="25561.7" cy="18830.7" r="98.4252" /> 
</g>
<g style="fill:#FFFFFF; fill-opacity:1.0; 
stroke:#FFFFFF; stroke-width:39.3701; stroke-opacity:1; 
stroke-linecap:round; stroke-linejoin:round;">
</g>
<g style="fill:#FFFFFF; fill-opacity:1.0; 
stroke:#FFFFFF; stroke-width:0; stroke-opacity:1; 
stroke-linecap:round; stroke-linejoin:round;">
<circle cx="25561.7" cy="19830.7" r="98.4252" /> 
</g>
<g style="fill:#FFFFFF; fill-opacity:1.0; 
stroke:#FFFFFF; stroke-width:39.3701; stroke-opacity:1; 
stroke-linecap:round; stroke-linejoin:round;">
</g>
<g style="fill:#FFFFFF; fill-opacity:1.0; 
stroke:#FFFFFF; stroke-width:0; stroke-opacity:1; 
stroke-linecap:round; stroke-linejoin:round;">
<circle cx="25561.7" cy="20830.7" r="98.4252" /> 
</g>
<g style="fill:#FFFFFF; fill-opacity:1.0; 
stroke:#FFFFFF; stroke-width:39.3701; stroke-opacity:1; 
stroke-linecap:round; stroke-linejoin:round;">
</g>
<g style="fill:#FFFFFF; fill-opacity:1.0; 
stroke:#FFFFFF; stroke-width:0; stroke-opacity:1; 
stroke-linecap:round; stroke-linejoin:round;">
<circle cx="25561.7" cy="21830.7" r="98.4252" /> 
</g>
<g style="fill:#FFFFFF; fill-opacity:1.0; 
stroke:#FFFFFF; stroke-width:39.3701; stroke-opacity:1; 
stroke-linecap:round; stroke-linejoin:round;">
</g>
<g style="fill:#FFFFFF; fill-opacity:1.0; 
stroke:#FFFFFF; stroke-width:0; stroke-opacity:1; 
stroke-linecap:round; stroke-linejoin:round;">
<circle cx="25561.7" cy="22830.7" r="98.4252" /> 
</g>
<g style="fill:#FFFFFF; fill-opacity:1.0; 
stroke:#FFFFFF; stroke-width:39.3701; stroke-opacity:1; 
stroke-linecap:round; stroke-linejoin:round;">
</g>
<g style="fill:#FFFFFF; fill-opacity:1.0; 
stroke:#FFFFFF; stroke-width:0; stroke-opacity:1; 
stroke-linecap:round; stroke-linejoin:round;">
<circle cx="25561.7" cy="23830.7" r="98.4252" /> 
</g>
<g style="fill:#FFFFFF; fill-opacity:1.0; 
stroke:#FFFFFF; stroke-width:39.3701; stroke-opacity:1; 
stroke-linecap:round; stroke-linejoin:round;">
</g>
<g style="fill:#FFFFFF; fill-opacity:1.0; 
stroke:#FFFFFF; stroke-width:0; stroke-opacity:1; 
stroke-linecap:round; stroke-linejoin:round;">
<circle cx="25561.7" cy="24830.7" r="98.4252" /> 
</g>
<g style="fill:#FFFFFF; fill-opacity:1.0; 
stroke:#FFFFFF; stroke-width:39.3701; stroke-opacity:1; 
stroke-linecap:round; stroke-linejoin:round;">
</g>
<g style="fill:#FFFFFF; fill-opacity:1.0; 
stroke:#FFFFFF; stroke-width:0; stroke-opacity:1; 
stroke-linecap:round; stroke-linejoin:round;">
<circle cx="25561.7" cy="25830.7" r="98.4252" /> 
</g>
<g style="fill:#FFFFFF; fill-opacity:1.0; 
stroke:#FFFFFF; stroke-width:39.3701; stroke-opacity:1; 
stroke-linecap:round; stroke-linejoin:round;">
</g>
<g style="fill:#FFFFFF; fill-opacity:1.0; 
stroke:#FFFFFF; stroke-width:0; stroke-opacity:1; 
stroke-linecap:round; stroke-linejoin:round;">
<circle cx="25561.7" cy="26830.7" r="98.4252" /> 
</g>
<g style="fill:#FFFFFF; fill-opacity:1.0; 
stroke:#FFFFFF; stroke-width:39.3701; stroke-opacity:1; 
stroke-linecap:round; stroke-linejoin:round;">
</g>
<g style="fill:#FFFFFF; fill-opacity:1.0; 
stroke:#FFFFFF; stroke-width:0; stroke-opacity:1; 
stroke-linecap:round; stroke-linejoin:round;">
<circle cx="25561.7" cy="27830.7" r="98.4252" /> 
</g>
<g style="fill:#FFFFFF; fill-opacity:1.0; 
stroke:#FFFFFF; stroke-width:39.3701; stroke-opacity:1; 
stroke-linecap:round; stroke-linejoin:round;">
</g>
<g style="fill:#FFFFFF; fill-opacity:1.0; 
stroke:#FFFFFF; stroke-width:0; stroke-opacity:1; 
stroke-linecap:round; stroke-linejoin:round;">
<circle cx="25561.7" cy="28830.7" r="98.4252" /> 
</g>
<g style="fill:#FFFFFF; fill-opacity:1.0; 
stroke:#FFFFFF; stroke-width:39.3701; stroke-opacity:1; 
stroke-linecap:round; stroke-linejoin:round;">
</g>
<g style="fill:#FFFFFF; fill-opacity:1.0; 
stroke:#FFFFFF; stroke-width:0; stroke-opacity:1; 
stroke-linecap:round; stroke-linejoin:round;">
<circle cx="25561.7" cy="29830.7" r="98.4252" /> 
</g>
<g style="fill:#FFFFFF; fill-opacity:1.0; 
stroke:#FFFFFF; stroke-width:39.3701; stroke-opacity:1; 
stroke-linecap:round; stroke-linejoin:round;">
</g>
<g style="fill:#FFFFFF; fill-opacity:1.0; 
stroke:#FFFFFF; stroke-width:0; stroke-opacity:1; 
stroke-linecap:round; stroke-linejoin:round;">
<circle cx="25561.7" cy="30830.7" r="98.4252" /> 
</g>
<g style="fill:#FFFFFF; fill-opacity:1.0; 
stroke:#FFFFFF; stroke-width:39.3701; stroke-opacity:1; 
stroke-linecap:round; stroke-linejoin:round;">
</g>
<g style="fill:#FFFFFF; fill-opacity:1.0; 
stroke:#FFFFFF; stroke-width:0; stroke-opacity:1; 
stroke-linecap:round; stroke-linejoin:round;">
<circle cx="25561.7" cy="31830.7" r="98.4252" /> 
</g>
<g style="fill:#FFFFFF; fill-opacity:1.0; 
stroke:#FFFFFF; stroke-width:39.3701; stroke-opacity:1; 
stroke-linecap:round; stroke-linejoin:round;">
</g>
<g style="fill:#FFFFFF; fill-opacity:1.0; 
stroke:#FFFFFF; stroke-width:0; stroke-opacity:1; 
stroke-linecap:round; stroke-linejoin:round;">
<circle cx="12081.4" cy="6240.16" r="98.4252" /> 
</g>
<g style="fill:#FFFFFF; fill-opacity:1.0; 
stroke:#FFFFFF; stroke-width:39.3701; stroke-opacity:1; 
stroke-linecap:round; stroke-linejoin:round;">
</g>
<g style="fill:#FFFFFF; fill-opacity:1.0; 
stroke:#FFFFFF; stroke-width:0; stroke-opacity:1; 
stroke-linecap:round; stroke-linejoin:round;">
<circle cx="20742.8" cy="13129.9" r="98.4252" /> 
</g>
<g style="fill:#FFFFFF; fill-opacity:1.0; 
stroke:#FFFFFF; stroke-width:39.3701; stroke-opacity:1; 
stroke-linecap:round; stroke-linejoin:round;">
</g>
<g style="fill:#FFFFFF; fill-opacity:1.0; 
stroke:#FFFFFF; stroke-width:0; stroke-opacity:1; 
stroke-linecap:round; stroke-linejoin:round;">
<circle cx="20742.8" cy="12129.9" r="98.4252" /> 
</g>
<g style="fill:#FFFFFF; fill-opacity:1.0; 
stroke:#FFFFFF; stroke-width:39.3701; stroke-opacity:1; 
stroke-linecap:round; stroke-linejoin:round;">
</g>
<g style="fill:#FFFFFF; fill-opacity:1.0; 
stroke:#FFFFFF; stroke-width:0; stroke-opacity:1; 
stroke-linecap:round; stroke-linejoin:round;">
<circle cx="20742.8" cy="11129.9" r="98.4252" /> 
</g>
<g style="fill:#FFFFFF; fill-opacity:1.0; 
stroke:#FFFFFF; stroke-width:39.3701; stroke-opacity:1; 
stroke-linecap:round; stroke-linejoin:round;">
</g>
<g style="fill:#FFFFFF; fill-opacity:1.0; 
stroke:#FFFFFF; stroke-width:0; stroke-opacity:1; 
stroke-linecap:round; stroke-linejoin:round;">
<circle cx="20742.8" cy="10129.9" r="98.4252" /> 
</g>
<g style="fill:#FFFFFF; fill-opacity:1.0; 
stroke:#FFFFFF; stroke-width:39.3701; stroke-opacity:1; 
stroke-linecap:round; stroke-linejoin:round;">
</g>
<g style="fill:#FFFFFF; fill-opacity:1.0; 
stroke:#FFFFFF; stroke-width:0; stroke-opacity:1; 
stroke-linecap:round; stroke-linejoin:round;">
<circle cx="20742.8" cy="9129.92" r="98.4252" /> 
</g>
<g style="fill:#FFFFFF; fill-opacity:1.0; 
stroke:#FFFFFF; stroke-width:39.3701; stroke-opacity:1; 
stroke-linecap:round; stroke-linejoin:round;">
</g>
<g style="fill:#FFFFFF; fill-opacity:1.0; 
stroke:#FFFFFF; stroke-width:0; stroke-opacity:1; 
stroke-linecap:round; stroke-linejoin:round;">
<circle cx="18183.7" cy="13129.9" r="98.4252" /> 
</g>
<g style="fill:#FFFFFF; fill-opacity:1.0; 
stroke:#FFFFFF; stroke-width:39.3701; stroke-opacity:1; 
stroke-linecap:round; stroke-linejoin:round;">
</g>
<g style="fill:#FFFFFF; fill-opacity:1.0; 
stroke:#FFFFFF; stroke-width:0; stroke-opacity:1; 
stroke-linecap:round; stroke-linejoin:round;">
<circle cx="18183.7" cy="12129.9" r="98.4252" /> 
</g>
<g style="fill:#FFFFFF; fill-opacity:1.0; 
stroke:#FFFFFF; stroke-width:39.3701; stroke-opacity:1; 
stroke-linecap:round; stroke-linejoin:round;">
</g>
<g style="fill:#FFFFFF; fill-opacity:1.0; 
stroke:#FFFFFF; stroke-width:0; stroke-opacity:1; 
stroke-linecap:round; stroke-linejoin:round;">
<circle cx="18183.7" cy="11129.9" r="98.4252" /> 
</g>
<g style="fill:#FFFFFF; fill-opacity:1.0; 
stroke:#FFFFFF; stroke-width:39.3701; stroke-opacity:1; 
stroke-linecap:round; stroke-linejoin:round;">
</g>
<g style="fill:#FFFFFF; fill-opacity:1.0; 
stroke:#FFFFFF; stroke-width:0; stroke-opacity:1; 
stroke-linecap:round; stroke-linejoin:round;">
<circle cx="18183.7" cy="10129.9" r="98.4252" /> 
</g>
<g style="fill:#FFFFFF; fill-opacity:1.0; 
stroke:#FFFFFF; stroke-width:39.3701; stroke-opacity:1; 
stroke-linecap:round; stroke-linejoin:round;">
</g>
<g style="fill:#FFFFFF; fill-opacity:1.0; 
stroke:#FFFFFF; stroke-width:0; stroke-opacity:1; 
stroke-linecap:round; stroke-linejoin:round;">
<circle cx="18183.7" cy="9129.92" r="98.4252" /> 
</g>
<g style="fill:#FFFFFF; fill-opacity:1.0; 
stroke:#FFFFFF; stroke-width:39.3701; stroke-opacity:1; 
stroke-linecap:round; stroke-linejoin:round;">
</g>
<g style="fill:#FFFFFF; fill-opacity:1.0; 
stroke:#FFFFFF; stroke-width:0; stroke-opacity:1; 
stroke-linecap:round; stroke-linejoin:round;">
<circle cx="15624.7" cy="13129.9" r="98.4252" /> 
</g>
<g style="fill:#FFFFFF; fill-opacity:1.0; 
stroke:#FFFFFF; stroke-width:39.3701; stroke-opacity:1; 
stroke-linecap:round; stroke-linejoin:round;">
</g>
<g style="fill:#FFFFFF; fill-opacity:1.0; 
stroke:#FFFFFF; stroke-width:0; stroke-opacity:1; 
stroke-linecap:round; stroke-linejoin:round;">
<circle cx="15624.7" cy="12129.9" r="98.4252" /> 
</g>
<g style="fill:#FFFFFF; fill-opacity:1.0; 
stroke:#FFFFFF; stroke-width:39.3701; stroke-opacity:1; 
stroke-linecap:round; stroke-linejoin:round;">
</g>
<g style="fill:#FFFFFF; fill-opacity:1.0; 
stroke:#FFFFFF; stroke-width:0; stroke-opacity:1; 
stroke-linecap:round; stroke-linejoin:round;">
<circle cx="15624.7" cy="11129.9" r="98.4252" /> 
</g>
<g style="fill:#FFFFFF; fill-opacity:1.0; 
stroke:#FFFFFF; stroke-width:39.3701; stroke-opacity:1; 
stroke-linecap:round; stroke-linejoin:round;">
</g>
<g style="fill:#FFFFFF; fill-opacity:1.0; 
stroke:#FFFFFF; stroke-width:0; stroke-opacity:1; 
stroke-linecap:round; stroke-linejoin:round;">
<circle cx="15624.7" cy="10129.9" r="98.4252" /> 
</g>
<g style="fill:#FFFFFF; fill-opacity:1.0; 
stroke:#FFFFFF; stroke-width:39.3701; stroke-opacity:1; 
stroke-linecap:round; stroke-linejoin:round;">
</g>
<g style="fill:#FFFFFF; fill-opacity:1.0; 
stroke:#FFFFFF; stroke-width:0; stroke-opacity:1; 
stroke-linecap:round; stroke-linejoin:round;">
<circle cx="15624.7" cy="9129.92" r="98.4252" /> 
</g>
<g style="fill:#FFFFFF; fill-opacity:1.0; 
stroke:#FFFFFF; stroke-width:39.3701; stroke-opacity:1; 
stroke-linecap:round; stroke-linejoin:round;">
</g>
<g style="fill:#FFFFFF; fill-opacity:1.0; 
stroke:#FFFFFF; stroke-width:0; stroke-opacity:1; 
stroke-linecap:round; stroke-linejoin:round;">
<circle cx="13065.6" cy="13129.9" r="98.4252" /> 
</g>
<g style="fill:#FFFFFF; fill-opacity:1.0; 
stroke:#FFFFFF; stroke-width:39.3701; stroke-opacity:1; 
stroke-linecap:round; stroke-linejoin:round;">
</g>
<g style="fill:#FFFFFF; fill-opacity:1.0; 
stroke:#FFFFFF; stroke-width:0; stroke-opacity:1; 
stroke-linecap:round; stroke-linejoin:round;">
<circle cx="13065.6" cy="12129.9" r="98.4252" /> 
</g>
<g style="fill:#FFFFFF; fill-opacity:1.0; 
stroke:#FFFFFF; stroke-width:39.3701; stroke-opacity:1; 
stroke-linecap:round; stroke-linejoin:round;">
</g>
<g style="fill:#FFFFFF; fill-opacity:1.0; 
stroke:#FFFFFF; stroke-width:0; stroke-opacity:1; 
stroke-linecap:round; stroke-linejoin:round;">
<circle cx="13065.6" cy="11129.9" r="98.4252" /> 
</g>
<g style="fill:#FFFFFF; fill-opacity:1.0; 
stroke:#FFFFFF; stroke-width:39.3701; stroke-opacity:1; 
stroke-linecap:round; stroke-linejoin:round;">
</g>
<g style="fill:#FFFFFF; fill-opacity:1.0; 
stroke:#FFFFFF; stroke-width:0; stroke-opacity:1; 
stroke-linecap:round; stroke-linejoin:round;">
<circle cx="13065.6" cy="10129.9" r="98.4252" /> 
</g>
<g style="fill:#FFFFFF; fill-opacity:1.0; 
stroke:#FFFFFF; stroke-width:39.3701; stroke-opacity:1; 
stroke-linecap:round; stroke-linejoin:round;">
</g>
<g style="fill:#FFFFFF; fill-opacity:1.0; 
stroke:#FFFFFF; stroke-width:0; stroke-opacity:1; 
stroke-linecap:round; stroke-linejoin:round;">
<circle cx="13065.6" cy="9129.92" r="98.4252" /> 
</g>
<g style="fill:#FFFFFF; fill-opacity:1.0; 
stroke:#FFFFFF; stroke-width:39.3701; stroke-opacity:1; 
stroke-linecap:round; stroke-linejoin:round;">
</g>
<g style="fill:#FFFFFF; fill-opacity:1.0; 
stroke:#FFFFFF; stroke-width:0; stroke-opacity:1; 
stroke-linecap:round; stroke-linejoin:round;">
<circle cx="24523.9" cy="7726.77" r="98.4252" /> 
</g>
<g style="fill:#FFFFFF; fill-opacity:1.0; 
stroke:#FFFFFF; stroke-width:39.3701; stroke-opacity:1; 
stroke-linecap:round; stroke-linejoin:round;">
</g>
<g style="fill:#FFFFFF; fill-opacity:1.0; 
stroke:#FFFFFF; stroke-width:0; stroke-opacity:1; 
stroke-linecap:round; stroke-linejoin:round;">
<circle cx="11294" cy="30846.5" r="98.4252" /> 
</g>
<g style="fill:#FFFFFF; fill-opacity:1.0; 
stroke:#FFFFFF; stroke-width:39.3701; stroke-opacity:1; 
stroke-linecap:round; stroke-linejoin:round;">
</g>
<g style="fill:#FFFFFF; fill-opacity:1.0; 
stroke:#FFFFFF; stroke-width:0; stroke-opacity:1; 
stroke-linecap:round; stroke-linejoin:round;">
<circle cx="11294" cy="29846.5" r="98.4252" /> 
</g>
<g style="fill:#FFFFFF; fill-opacity:1.0; 
stroke:#FFFFFF; stroke-width:39.3701; stroke-opacity:1; 
stroke-linecap:round; stroke-linejoin:round;">
</g>
<g style="fill:#FFFFFF; fill-opacity:1.0; 
stroke:#FFFFFF; stroke-width:0; stroke-opacity:1; 
stroke-linecap:round; stroke-linejoin:round;">
<circle cx="11294" cy="28846.5" r="98.4252" /> 
</g>
<g style="fill:#FFFFFF; fill-opacity:1.0; 
stroke:#FFFFFF; stroke-width:39.3701; stroke-opacity:1; 
stroke-linecap:round; stroke-linejoin:round;">
</g>
<g style="fill:#FFFFFF; fill-opacity:1.0; 
stroke:#FFFFFF; stroke-width:0; stroke-opacity:1; 
stroke-linecap:round; stroke-linejoin:round;">
<circle cx="11294" cy="27846.5" r="98.4252" /> 
</g>
<g style="fill:#FFFFFF; fill-opacity:1.0; 
stroke:#FFFFFF; stroke-width:39.3701; stroke-opacity:1; 
stroke-linecap:round; stroke-linejoin:round;">
</g>
<g style="fill:#000000; fill-opacity:1.0; 
stroke:#000000; stroke-width:39.3701; stroke-opacity:1; 
stroke-linecap:round; stroke-linejoin:round;">
</g> 
</svg>
